mtllib material.mtl
o Default
v 2 6 0.625
v 2 6 2.625
v 4 6 2.6250500679016113
v 4 6 0.625
v 2 6 2.625
v 4 6 4.625249862670898
v 2 6 4.625
v 4 6 2.6250500679016113
v 2 6 4.625
v 4 6 6.625
v 2 6 6.625
v 4 6 4.625249862670898
v 4 6 4.625249862670898
v 6 6 6.625
v 4 6 6.625
v 6 6 4.625249862670898
v 4 6 2.6250500679016113
v 6 6 4.625249862670898
v 4 6 4.625249862670898
v 6 6 2.6250500679016113
v 6 6 2.6250500679016113
v 8 6 4.625
v 6 6 4.625249862670898
v 8 6 2.625
v 6 6 4.625249862670898
v 8 6 6.625
v 6 6 6.625
v 8 6 4.625
v 6 6 0.625
v 8 6 2.625
v 6 6 2.6250500679016113
v 8 6 0.625
v 4 6 0.625
v 6 6 2.6250500679016113
v 4 6 2.6250500679016113
v 6 6 0.625
v 6 6 6.625
v 8 8 6.625
v 6 8 6.625
v 8 6 6.625
v 4 6 6.625
v 6 8 6.625
v 4 8 6.625
v 6 6 6.625
v 2 6 6.625
v 4 8 6.625
v 2 8 6.625
v 4 6 6.625
v 2 8 6.625
v 4 10 6.625
v 2 10 6.625
v 4 8 6.625
v 4 8 6.625
v 6 10 6.625
v 4 10 6.625
v 6 8 6.625
v 6 8 6.625
v 8 10 6.625
v 6 10 6.625
v 8 8 6.625
v 2 8 0.625
v 2 10 2.625
v 2 10 0.625
v 2 8 2.625
v 2 8 2.625
v 2 10 4.625
v 2 10 2.625
v 2 8 4.625
v 2 8 4.625
v 2 10 6.625
v 2 10 4.625
v 2 8 6.625
v 2 6 4.625
v 2 8 6.625
v 2 8 4.625
v 2 6 6.625
v 2 6 2.625
v 2 8 4.625
v 2 8 2.625
v 2 6 4.625
v 2 6 0.625
v 2 8 2.625
v 2 8 0.625
v 2 6 2.625
v 8 6 0.625
v 6 8 0.625
v 8 8 0.625
v 6 6 0.625
v 8 8 0.625
v 6 10 0.625
v 8 10 0.625
v 6 8 0.625
v 6 8 0.625
v 4 10 0.625
v 6 10 0.625
v 4 8 0.625
v 6 6 0.625
v 4 8 0.625
v 6 8 0.625
v 4 6 0.625
v 4 6 0.625
v 2 8 0.625
v 4 8 0.625
v 2 6 0.625
v 4 8 0.625
v 2 10 0.625
v 4 10 0.625
v 2 8 0.625
v 6 10 6.625
v 8 10 4.624450206756592
v 6 10 4.624450206756592
v 8 10 6.625
v 4 10 6.625
v 6 10 4.624450206756592
v 4 10 4.624450206756592
v 6 10 6.625
v 2 10 6.625
v 4 10 4.624450206756592
v 2 10 4.625
v 4 10 6.625
v 2 10 4.625
v 4 10 2.624650001525879
v 2 10 2.625
v 4 10 4.624450206756592
v 2 10 2.625
v 4 10 0.625
v 2 10 0.625
v 4 10 2.624650001525879
v 4 10 2.624650001525879
v 6 10 0.625
v 4 10 0.625
v 6 10 2.624650001525879
v 4 10 4.624450206756592
v 6 10 2.624650001525879
v 4 10 2.624650001525879
v 6 10 4.624450206756592
v 6 10 4.624450206756592
v 8 10 2.625
v 6 10 2.624650001525879
v 8 10 4.624450206756592
v 6 10 2.624650001525879
v 8 10 0.625
v 6 10 0.625
v 8 10 2.625
v 8 8 6.625
v 8 10 4.624450206756592
v 8 10 6.625
v 8 8 4.625
v 8 8 4.625
v 8 10 2.625
v 8 10 4.624450206756592
v 8 8 2.625
v 8 8 2.625
v 8 10 0.625
v 8 10 2.625
v 8 8 0.625
v 8 6 2.625
v 8 8 0.625
v 8 8 2.625
v 8 6 0.625
v 8 6 4.625
v 8 8 2.625
v 8 8 4.625
v 8 6 2.625
v 8 6 6.625
v 8 8 4.625
v 8 8 6.625
v 8 6 4.625
vt 0.3333333432674408 0.1666666865348816
vt 0.4444444477558136 0.25
vt 0.3333333432674408 0.25
vt 0.4444444477558136 0.1666666865348816
vt 0.5555555820465088 0.08333335071802139
vt 0.6666666865348816 0.1666666716337204
vt 0.5555555820465088 0.1666666716337204
vt 0.6666666865348816 0.08333335071802139
vt 0.5555555820465088 1.9868215517249155e-8
vt 0.6666666865348816 0.0833333358168602
vt 0.5555555820465088 0.0833333358168602
vt 0.6666666865348816 1.9868215517249155e-8
vt 0.4444444477558136 3.973643103449831e-8
vt 0.555555522441864 0.08333335071802139
vt 0.4444444477558136 0.08333335071802139
vt 0.555555522441864 3.973643103449831e-8
vt 0.4444444477558136 0.0833333358168602
vt 0.555555522441864 0.166666641831398
vt 0.4444444477558136 0.166666641831398
vt 0.555555522441864 0.0833333358168602
vt 0.3333333134651184 0.08333335816860199
vt 0.4444444477558136 0.1666666567325592
vt 0.3333333134651184 0.1666666567325592
vt 0.4444444477558136 0.08333335816860199
vt 0.3333333432674408 1.9868215517249155e-8
vt 0.3333333432674408 0.0833333358168602
vt 0.4444444477558136 1.9868215517249155e-8
vt 0.5555555820465088 0.1666666865348816
vt 0.6666666865348816 0.25
vt 0.5555555820465088 0.25
vt 0.6666666865348816 0.1666666865348816
vt 0.5555555820465088 0.5833333730697632
vt 0.6666666865348816 0.6666666865348816
vt 0.5555555820465088 0.6666666865348816
vt 0.6666666865348816 0.5833333730697632
vt 0.4444444477558136 0.5833333730697632
vt 0.4444444477558136 0.6666666865348816
vt 0.3333333432674408 0.5833333730697632
vt 0.3333333432674408 0.6666666865348816
vt 0.4444444477558136 0.75
vt 0.3333333432674408 0.75
vt 0.5555555820465088 0.75
vt 0.6666666865348816 0.75
vt 0.3333333432674408 0.4166666567325592
vt 0.4444444477558136 0.5
vt 0.3333333432674408 0.5
vt 0.4444444477558136 0.4166666567325592
vt 0.4444444477558136 0.4166666865348816
vt 0.5555555820465088 0.5
vt 0.5555555820465088 0.4166666865348816
vt 0.6666666865348816 0.5
vt 0.6666666865348816 0.4166666865348816
vt 0.5555555820465088 0.3333333432674408
vt 0.6666666865348816 0.4166666567325592
vt 0.5555555820465088 0.4166666567325592
vt 0.6666666865348816 0.3333333432674408
vt 0.4444444477558136 0.3333333432674408
vt 0.3333333432674408 0.3333333432674408
vt 0 0.5833333134651184
vt 0.1111111119389534 0.6666666865348816
vt 0 0.6666666865348816
vt 0.1111111119389534 0.5833333134651184
vt 0.1111111119389534 0.75
vt 0 0.75
vt 0.2222222238779068 0.75
vt 0.2222222238779068 0.6666666865348816
vt 0.1111111119389534 0.5833333730697632
vt 0.2222222238779068 0.5833333730697632
vt 0.2222222238779068 0.5833333134651184
vt 0.3333333432674408 0.5833333134651184
vt 0.5555555820465088 0.9166666865348816
vt 0.6666666865348816 1
vt 0.5555555820465088 1
vt 0.6666666865348816 0.9166666865348816
vt 0.4444444477558136 0.9166666865348816
vt 0.4444444477558136 1
vt 0.3333333432674408 0.9166666865348816
vt 0.3333333432674408 1
vt 0.3333333432674408 0.8333333730697632
vt 0.4444444477558136 0.8333333730697632
vt 0.4444444477558136 0.8333333134651184
vt 0.3333333432674408 0.8333333134651184
vt 0.5555555820465088 0.8333333134651184
vt 0.5555555820465088 0.8333333730697632
vt 0.6666666865348816 0.8333333730697632
vt 0.6666666865348816 0.8333333134651184
vt 0.7777777910232544 0.75
vt 0.7777777910232544 0.6666666865348816
vt 0.8888888955116272 0.75
vt 0.8888888955116272 0.6666666865348816
vt 1 0.75
vt 1 0.6666666865348816
vt 0.8888888955116272 0.5833333730697632
vt 1 0.5833333730697632
vt 0.7777777910232544 0.5833333730697632
vn 0 -1 0
vn 0 0 1
vn -1 0 0
vn 0 0 -1
vn 0 1 0
vn 1 0 0
g mediumGrassBlock
usemtl 1
f 1/1/1 3/2/1 2/3/1
f 1/1/1 4/4/1 3/2/1
f 5/5/1 6/6/1 7/7/1
f 5/5/1 8/8/1 6/6/1
f 9/9/1 10/10/1 11/11/1
f 9/9/1 12/12/1 10/10/1
f 13/13/1 14/14/1 15/15/1
f 13/13/1 16/16/1 14/14/1
f 17/17/1 18/18/1 19/19/1
f 17/17/1 20/20/1 18/18/1
f 21/21/1 22/22/1 23/23/1
f 21/21/1 24/24/1 22/22/1
f 25/25/1 26/17/1 27/26/1
f 25/25/1 28/27/1 26/17/1
f 29/28/1 30/29/1 31/30/1
f 29/28/1 32/31/1 30/29/1
f 33/4/1 34/30/1 35/2/1
f 33/4/1 36/28/1 34/30/1
f 37/32/2 38/33/2 39/34/2
f 37/32/2 40/35/2 38/33/2
f 41/36/2 42/34/2 43/37/2
f 41/36/2 44/32/2 42/34/2
f 45/38/2 46/37/2 47/39/2
f 45/38/2 48/36/2 46/37/2
f 49/39/2 50/40/2 51/41/2
f 49/39/2 52/37/2 50/40/2
f 53/37/2 54/42/2 55/40/2
f 53/37/2 56/34/2 54/42/2
f 57/34/2 58/43/2 59/42/2
f 57/34/2 60/33/2 58/43/2
f 61/44/3 62/45/3 63/46/3
f 61/44/3 64/47/3 62/45/3
f 65/48/3 66/49/3 67/45/3
f 65/48/3 68/50/3 66/49/3
f 69/50/3 70/51/3 71/49/3
f 69/50/3 72/52/3 70/51/3
f 73/53/3 74/54/3 75/55/3
f 73/53/3 76/56/3 74/54/3
f 77/57/3 78/55/3 79/47/3
f 77/57/3 80/53/3 78/55/3
f 81/58/3 82/47/3 83/44/3
f 81/58/3 84/57/3 82/47/3
f 85/59/4 86/60/4 87/61/4
f 85/59/4 88/62/4 86/60/4
f 89/61/4 90/63/4 91/64/4
f 89/61/4 92/60/4 90/63/4
f 93/60/4 94/65/4 95/63/4
f 93/60/4 96/66/4 94/65/4
f 97/67/4 98/66/4 99/60/4
f 97/67/4 100/68/4 98/66/4
f 101/69/4 102/39/4 103/66/4
f 101/69/4 104/70/4 102/39/4
f 105/66/4 106/41/4 107/65/4
f 105/66/4 108/39/4 106/41/4
f 109/71/5 110/72/5 111/73/5
f 109/71/5 112/74/5 110/72/5
f 113/75/5 114/73/5 115/76/5
f 113/75/5 116/71/5 114/73/5
f 117/77/5 118/76/5 119/78/5
f 117/77/5 120/75/5 118/76/5
f 121/79/5 122/75/5 123/77/5
f 121/79/5 124/80/5 122/75/5
f 125/41/5 126/81/5 127/82/5
f 125/41/5 128/40/5 126/81/5
f 129/40/5 130/83/5 131/81/5
f 129/40/5 132/42/5 130/83/5
f 133/80/5 134/71/5 135/75/5
f 133/80/5 136/84/5 134/71/5
f 137/84/5 138/74/5 139/71/5
f 137/84/5 140/85/5 138/74/5
f 141/42/5 142/86/5 143/83/5
f 141/42/5 144/43/5 142/86/5
f 145/33/6 146/87/6 147/43/6
f 145/33/6 148/88/6 146/87/6
f 149/88/6 150/89/6 151/87/6
f 149/88/6 152/90/6 150/89/6
f 153/90/6 154/91/6 155/89/6
f 153/90/6 156/92/6 154/91/6
f 157/93/6 158/92/6 159/90/6
f 157/93/6 160/94/6 158/92/6
f 161/95/6 162/90/6 163/88/6
f 161/95/6 164/93/6 162/90/6
f 165/35/6 166/88/6 167/33/6
f 165/35/6 168/95/6 166/88/6
