mtllib material.mtl
o Default
v 32.375 -3.125 -8.296966669263384e-9
v 32.375 -3.125 2
v 34.375 -3.125 2.0002501010894775
v 34.375 -3.125 -8.296966669263384e-9
v 34.375 -3.125 -8.296966669263384e-9
v 36.375 -3.125 2.0002501010894775
v 34.375 -3.125 2.0002501010894775
v 36.375 -3.125 -8.296966669263384e-9
v 36.375 -3.125 -8.296966669263384e-9
v 38.375 -3.125 2
v 36.375 -3.125 2.0002501010894775
v 38.375 -3.125 -8.296966669263384e-9
v 36.375 -3.125 2.0002501010894775
v 38.375 -3.125 4
v 36.375 -3.125 4.000450134277344
v 38.375 -3.125 2
v 34.375 -3.125 2.0002501010894775
v 36.375 -3.125 4.000450134277344
v 34.375 -3.125 4.000450134277344
v 36.375 -3.125 2.0002501010894775
v 32.375 -3.125 2
v 34.375 -3.125 4.000450134277344
v 32.375 -3.125 4
v 34.375 -3.125 2.0002501010894775
v 32.375 -3.125 4
v 34.375 -3.125 6
v 32.375 -3.125 6
v 34.375 -3.125 4.000450134277344
v 34.375 -3.125 4.000450134277344
v 36.375 -3.125 6
v 34.375 -3.125 6
v 36.375 -3.125 4.000450134277344
v 36.375 -3.125 4.000450134277344
v 38.375 -3.125 6
v 36.375 -3.125 6
v 38.375 -3.125 4
v 36.375 -3.125 6
v 38.375 -1.125 6
v 36.375 -1.125 6
v 38.375 -3.125 6
v 34.375 -3.125 6
v 36.375 -1.125 6
v 34.375 -1.125 6
v 36.375 -3.125 6
v 32.375 -3.125 6
v 34.375 -1.125 6
v 32.375 -1.125 6
v 34.375 -3.125 6
v 32.375 -3.125 4
v 32.375 -1.125 6
v 32.375 -1.125 4.000050067901611
v 32.375 -3.125 6
v 32.375 -3.125 2
v 32.375 -1.125 4.000050067901611
v 32.375 -1.125 2.0002501010894775
v 32.375 -3.125 4
v 32.375 -3.125 -8.296966669263384e-9
v 32.375 -1.125 2.0002501010894775
v 32.375 -1.125 0.0004499852657318115
v 32.375 -3.125 2
v 34.375 -3.125 -8.296966669263384e-9
v 32.375 -1.125 0.0004499852657318115
v 34.375 -1.125 0.00044999999227002263
v 32.375 -3.125 -8.296966669263384e-9
v 36.375 -3.125 -8.296966669263384e-9
v 34.375 -1.125 0.00044999999227002263
v 36.375 -1.125 0.00044999999227002263
v 34.375 -3.125 -8.296966669263384e-9
v 38.375 -3.125 -8.296966669263384e-9
v 36.375 -1.125 0.00044999999227002263
v 38.375 -1.125 0.00044999999227002263
v 36.375 -3.125 -8.296966669263384e-9
v 38.375 -3.125 2
v 38.375 -1.125 0.00044999999227002263
v 38.375 -1.125 2.0002498626708984
v 38.375 -3.125 -8.296966669263384e-9
v 38.375 -3.125 4
v 38.375 -1.125 2.0002498626708984
v 38.375 -1.125 4.000050067901611
v 38.375 -3.125 2
v 38.375 -3.125 6
v 38.375 -1.125 4.000050067901611
v 38.375 -1.125 6
v 38.375 -3.125 4
v 32.375 -1.125 6
v 34.375 -1.125 4.000050067901611
v 32.375 -1.125 4.000050067901611
v 34.375 -1.125 6
v 34.375 -1.125 6
v 36.375 -1.125 4.000050067901611
v 34.375 -1.125 4.000050067901611
v 36.375 -1.125 6
v 36.375 -1.125 6
v 38.375 -1.125 4.000050067901611
v 36.375 -1.125 4.000050067901611
v 38.375 -1.125 6
v 36.375 -1.125 4.000050067901611
v 38.375 -1.125 2.0002498626708984
v 36.375 -1.125 2.0002501010894775
v 38.375 -1.125 4.000050067901611
v 34.375 -1.125 4.000050067901611
v 36.375 -1.125 2.0002501010894775
v 34.375 -1.125 2.0002501010894775
v 36.375 -1.125 4.000050067901611
v 32.375 -1.125 4.000050067901611
v 34.375 -1.125 2.0002501010894775
v 32.375 -1.125 2.0002501010894775
v 34.375 -1.125 4.000050067901611
v 32.375 -1.125 2.0002501010894775
v 34.375 -1.125 0.00044999999227002263
v 32.375 -1.125 0.0004499852657318115
v 34.375 -1.125 2.0002501010894775
v 34.375 -1.125 2.0002501010894775
v 36.375 -1.125 0.00044999999227002263
v 34.375 -1.125 0.00044999999227002263
v 36.375 -1.125 2.0002501010894775
v 36.375 -1.125 2.0002501010894775
v 38.375 -1.125 0.00044999999227002263
v 36.375 -1.125 0.00044999999227002263
v 38.375 -1.125 2.0002501010894775
vt 0 0.5
vt 1 1
vt 0 1
vt 1 0.5
vn 0 -1 0
vn 0 0 1
vn -1 0 0
vn 1e-8 0.000225 -0.99999997
vn 0 0.000225 -0.99999997
vn 1 0 0
vn 0 1 0
g waterBlock
usemtl 0
f 1/1/1 3/2/1 2/3/1
f 1/1/1 4/4/1 3/2/1
f 5/1/1 6/2/1 7/3/1
f 5/1/1 8/4/1 6/2/1
f 9/1/1 10/2/1 11/3/1
f 9/1/1 12/4/1 10/2/1
f 13/1/1 14/2/1 15/3/1
f 13/1/1 16/4/1 14/2/1
f 17/1/1 18/2/1 19/3/1
f 17/1/1 20/4/1 18/2/1
f 21/1/1 22/2/1 23/3/1
f 21/1/1 24/4/1 22/2/1
f 25/1/1 26/2/1 27/3/1
f 25/1/1 28/4/1 26/2/1
f 29/1/1 30/2/1 31/3/1
f 29/1/1 32/4/1 30/2/1
f 33/1/1 34/2/1 35/3/1
f 33/1/1 36/4/1 34/2/1
f 37/1/2 38/2/2 39/3/2
f 37/1/2 40/4/2 38/2/2
f 41/1/2 42/2/2 43/3/2
f 41/1/2 44/4/2 42/2/2
f 45/1/2 46/2/2 47/3/2
f 45/1/2 48/4/2 46/2/2
f 49/1/3 50/2/3 51/3/3
f 49/1/3 52/4/3 50/2/3
f 53/1/3 54/2/3 55/3/3
f 53/1/3 56/4/3 54/2/3
f 57/1/3 58/2/3 59/3/3
f 57/1/3 60/4/3 58/2/3
f 61/1/4 62/2/4 63/3/4
f 61/1/5 64/4/5 62/2/5
f 65/1/5 66/2/5 67/3/5
f 65/1/5 68/4/5 66/2/5
f 69/1/5 70/2/5 71/3/5
f 69/1/5 72/4/5 70/2/5
f 73/1/6 74/2/6 75/3/6
f 73/1/6 76/4/6 74/2/6
f 77/1/6 78/2/6 79/3/6
f 77/1/6 80/4/6 78/2/6
f 81/1/6 82/2/6 83/3/6
f 81/1/6 84/4/6 82/2/6
f 85/1/7 86/2/7 87/3/7
f 85/1/7 88/4/7 86/2/7
f 89/1/7 90/2/7 91/3/7
f 89/1/7 92/4/7 90/2/7
f 93/1/7 94/2/7 95/3/7
f 93/1/7 96/4/7 94/2/7
f 97/1/7 98/2/7 99/3/7
f 97/1/7 100/4/7 98/2/7
f 101/1/7 102/2/7 103/3/7
f 101/1/7 104/4/7 102/2/7
f 105/1/7 106/2/7 107/3/7
f 105/1/7 108/4/7 106/2/7
f 109/1/7 110/2/7 111/3/7
f 109/1/7 112/4/7 110/2/7
f 113/1/7 114/2/7 115/3/7
f 113/1/7 116/4/7 114/2/7
f 117/1/7 118/2/7 119/3/7
f 117/1/7 120/4/7 118/2/7
