mtllib material.mtl
o Default
v 12.6875 -1.399999976158142 -2
v 12.6875 -0.6000000238418579 -2
v 12.6875 -0.6000000238418579 0
v 12.6875 -1.399999976158142 0
v 12.6875 -0.6000000238418579 0
v 14.6875 -0.5999999046325684 -2.0005500316619873
v 12.6875 -0.6000000238418579 -2
v 14.6875 -0.5999999046325684 -0.0005499999970197678
v 16.6875 -1.399999976158142 -1.999750018119812
v 18.6875 -1.399999976158142 -1.506805347162299e-8
v 16.6875 -1.399999976158142 -1.506805347162299e-8
v 18.6875 -1.399999976158142 -2
v 16.6875 -1.399999976158142 -3.9999499320983887
v 18.6875 -1.399999976158142 -2
v 16.6875 -1.399999976158142 -1.999750018119812
v 18.6875 -1.399999976158142 -4
v 14.6875 -1.399999976158142 -3.9999499320983887
v 16.6875 -1.399999976158142 -1.999750018119812
v 14.6875 -1.399999976158142 -1.999750018119812
v 16.6875 -1.399999976158142 -3.9999499320983887
v 14.6875 -1.399999976158142 -1.999750018119812
v 16.6875 -1.399999976158142 -1.506805347162299e-8
v 14.6875 -1.399999976158142 -1.506805347162299e-8
v 16.6875 -1.399999976158142 -1.999750018119812
v 12.6875 -1.399999976158142 -2
v 14.6875 -1.399999976158142 -1.506805347162299e-8
v 12.6875 -1.399999976158142 0
v 14.6875 -1.399999976158142 -1.999750018119812
v 16.6875 -1.399999976158142 -6
v 18.6875 -1.399999976158142 -4
v 16.6875 -1.399999976158142 -3.9999499320983887
v 18.6875 -1.399999976158142 -6
v 14.6875 -1.399999976158142 -6
v 16.6875 -1.399999976158142 -3.9999499320983887
v 14.6875 -1.399999976158142 -3.9999499320983887
v 16.6875 -1.399999976158142 -6
v 12.6875 -1.399999976158142 -4
v 14.6875 -1.399999976158142 -1.999750018119812
v 12.6875 -1.399999976158142 -2
v 14.6875 -1.399999976158142 -3.9999499320983887
v 12.6875 -1.399999976158142 -6
v 14.6875 -1.399999976158142 -3.9999499320983887
v 12.6875 -1.399999976158142 -4
v 14.6875 -1.399999976158142 -6
v 16.6875 -0.5999999046325684 -4.000349998474121
v 18.6875 -0.5999999046325684 -6
v 16.6875 -0.5999999046325684 -6
v 18.6875 -0.5999999046325684 -4
v 16.6875 -0.5999999046325684 -2.0005500316619873
v 18.6875 -0.5999999046325684 -4
v 16.6875 -0.5999999046325684 -4.000349998474121
v 18.6875 -0.5999999046325684 -2.0005500316619873
v 14.6875 -1.399999976158142 -6
v 12.6875 -0.6000000238418579 -6
v 14.6875 -0.6000000238418579 -6
v 12.6875 -1.399999976158142 -6
v 16.6875 -1.399999976158142 -6
v 14.6875 -0.6000000238418579 -6
v 16.6875 -0.5999999046325684 -6
v 14.6875 -1.399999976158142 -6
v 14.6875 -0.5999999046325684 -2.0005500316619873
v 16.6875 -0.5999999046325684 -4.000349998474121
v 14.6875 -0.5999999046325684 -4.000349998474121
v 16.6875 -0.5999999046325684 -2.0005500316619873
v 14.6875 -0.5999999046325684 -4.000349998474121
v 16.6875 -0.5999999046325684 -6
v 14.6875 -0.6000000238418579 -6
v 16.6875 -0.5999999046325684 -4.000349998474121
v 12.6875 -0.5999999046325684 -4
v 14.6875 -0.6000000238418579 -6
v 12.6875 -0.6000000238418579 -6
v 14.6875 -0.5999999046325684 -4.000349998474121
v 12.6875 -0.6000000238418579 -2
v 14.6875 -0.5999999046325684 -4.000349998474121
v 12.6875 -0.5999999046325684 -4
v 14.6875 -0.5999999046325684 -2.0005500316619873
v 18.6875 -1.399999976158142 -6
v 16.6875 -0.5999999046325684 -6
v 18.6875 -0.5999999046325684 -6
v 16.6875 -1.399999976158142 -6
v 12.6875 -1.399999976158142 -4
v 12.6875 -0.6000000238418579 -2
v 12.6875 -0.5999999046325684 -4
v 12.6875 -1.399999976158142 -2
v 14.6875 -0.5999999046325684 -0.0005499999970197678
v 16.6875 -0.5999999046325684 -2.0005500316619873
v 14.6875 -0.5999999046325684 -2.0005500316619873
v 16.6875 -0.5999999046325684 -0.0005499999970197678
v 12.6875 -1.399999976158142 -6
v 12.6875 -0.5999999046325684 -4
v 12.6875 -0.6000000238418579 -6
v 12.6875 -1.399999976158142 -4
v 12.6875 -1.399999976158142 0
v 14.6875 -0.5999999046325684 -0.0005499999970197678
v 12.6875 -0.6000000238418579 0
v 14.6875 -1.399999976158142 -1.506805347162299e-8
v 14.6875 -1.399999976158142 -1.506805347162299e-8
v 16.6875 -0.5999999046325684 -0.0005499999970197678
v 14.6875 -0.5999999046325684 -0.0005499999970197678
v 16.6875 -1.399999976158142 -1.506805347162299e-8
v 16.6875 -1.399999976158142 -1.506805347162299e-8
v 18.6875 -0.6000000238418579 0
v 16.6875 -0.5999999046325684 -0.0005499999970197678
v 18.6875 -1.399999976158142 -1.506805347162299e-8
v 18.6875 -1.399999976158142 -1.506805347162299e-8
v 18.6875 -0.5999999046325684 -2.0005500316619873
v 18.6875 -0.6000000238418579 0
v 18.6875 -1.399999976158142 -2
v 18.6875 -1.399999976158142 -2
v 18.6875 -0.5999999046325684 -4
v 18.6875 -0.5999999046325684 -2.0005500316619873
v 18.6875 -1.399999976158142 -4
v 18.6875 -1.399999976158142 -4
v 18.6875 -0.5999999046325684 -6
v 18.6875 -0.5999999046325684 -4
v 18.6875 -1.399999976158142 -6
v 16.6875 -0.5999999046325684 -0.0005499999970197678
v 18.6875 -0.5999999046325684 -2.0005500316619873
v 16.6875 -0.5999999046325684 -2.0005500316619873
v 18.6875 -0.5999999046325684 -0.0005499999970197678
vt 0.6666666865348816 0.5
vt 1 0.75
vt 0.6666666865348816 0.75
vt 1 0.5
vt 0.3333333432674408 0.5
vt 0.4444444477558136 0.5833333134651184
vt 0.3333333432674408 0.5833333134651184
vt 0.4444444477558136 0.5
vt 0.5555555820465088 0.1666666865348816
vt 0.6666666865348816 0.25
vt 0.5555555820465088 0.25
vt 0.6666666865348816 0.1666666865348816
vt 0.4444444477558136 0.1666666865348816
vt 0.4444444477558136 0.25
vt 0.4444444477558136 0.08333335816860199
vt 0.5555555820465088 0.1666666567325592
vt 0.4444444477558136 0.1666666567325592
vt 0.5555555820465088 0.08333335816860199
vt 0.3333333432674408 0.0833333432674408
vt 0.3333333432674408 0.1666666865348816
vt 0.4444444477558136 0.0833333432674408
vt 0.3333333432674408 0
vt 0.4444444477558136 0.0833333358168602
vt 0.3333333432674408 0.0833333358168602
vt 0.4444444477558136 0
vt 0.3333333432674408 0.1666666716337204
vt 0.3333333432674408 0.25
vt 0.4444444477558136 0.1666666716337204
vt 0.555555522441864 0.08333336561918259
vt 0.6666666865348816 0.166666641831398
vt 0.555555522441864 0.166666641831398
vt 0.6666666865348816 0.08333336561918259
vt 0.4444444477558136 2.4835268064293814e-8
vt 0.555555522441864 0.083333320915699
vt 0.4444444477558136 0.083333320915699
vt 0.555555522441864 2.4835268064293814e-8
vt 0.555555522441864 9.934107758624577e-9
vt 0.6666666269302368 0.08333335071802139
vt 0.555555522441864 0.08333335071802139
vt 0.6666666269302368 9.934107758624577e-9
vt 0.5555555820465088 0.6666666865348816
vt 0.5555555820465088 0.75
vt 0.6666666865348816 0.6666666865348816
vt 0.5555555820465088 0.5
vt 0.5555555820465088 0.5833333134651184
vt 0.4444444477558136 0.6666666865348816
vt 0.6666666865348816 0.5833333134651184
vt 0.3333333432674408 0.6666666865348816
vt 0.4444444477558136 0.75
vt 0.3333333432674408 0.75
vn -1 0 0
vn -6e-8 1 0
vn 0 -1 0
vn 0 1 0
vn 0 0 -1
vn -6e-8 1 -6e-8
vn 0 1 -6e-8
vn 0 1 6e-8
vn 0.000275 0 0.99999996
vn 1e-8 0.00068748 0.99999976
vn 0 0.00068748 0.99999976
vn -0.000275 0.00068748 0.99999973
vn 0 -2e-8 1
vn 1 0 0
g platform
usemtl 1
f 1/1/1 3/2/1 2/3/1
f 1/1/1 4/4/1 3/2/1
f 5/5/2 6/6/2 7/7/2
f 5/5/2 8/8/2 6/6/2
f 9/9/3 10/10/3 11/11/3
f 9/9/3 12/12/3 10/10/3
f 13/13/3 14/11/3 15/14/3
f 13/13/3 16/9/3 14/11/3
f 17/15/3 18/16/3 19/17/3
f 17/15/3 20/18/3 18/16/3
f 21/19/3 22/13/3 23/20/3
f 21/19/3 24/21/3 22/13/3
f 25/22/3 26/23/3 27/24/3
f 25/22/3 28/25/3 26/23/3
f 29/26/3 30/14/3 31/27/3
f 29/26/3 32/28/3 30/14/3
f 33/29/3 34/30/3 35/31/3
f 33/29/3 36/32/3 34/30/3
f 37/33/3 38/34/3 39/35/3
f 37/33/3 40/36/3 38/34/3
f 41/37/3 42/38/3 43/39/3
f 41/37/3 44/40/3 42/38/3
f 45/41/4 46/3/4 47/42/4
f 45/41/4 48/43/4 46/3/4
f 49/6/4 50/44/4 51/45/4
f 49/6/4 52/8/4 50/44/4
f 53/1/5 54/2/5 55/3/5
f 53/1/5 56/4/5 54/2/5
f 57/1/5 58/2/5 59/3/5
f 57/1/5 60/4/5 58/2/5
f 61/46/4 62/45/4 63/41/4
f 61/46/4 64/6/4 62/45/4
f 65/41/6 66/47/6 67/43/6
f 65/41/4 68/45/4 66/47/4
f 69/48/7 70/49/7 71/50/7
f 69/48/7 72/46/7 70/49/7
f 73/49/8 74/41/8 75/42/8
f 73/49/2 76/46/2 74/41/2
f 77/1/5 78/2/5 79/3/5
f 77/1/5 80/4/5 78/2/5
f 81/1/1 82/2/1 83/3/1
f 81/1/1 84/4/1 82/2/1
f 85/48/4 86/6/4 87/46/4
f 85/48/4 88/7/4 86/6/4
f 89/1/1 90/2/1 91/3/1
f 89/1/1 92/4/1 90/2/1
f 93/1/9 94/2/9 95/3/9
f 93/1/10 96/4/10 94/2/10
f 97/1/11 98/2/11 99/3/11
f 97/1/11 100/4/11 98/2/11
f 101/1/12 102/2/12 103/3/12
f 101/1/13 104/4/13 102/2/13
f 105/1/14 106/2/14 107/3/14
f 105/1/14 108/4/14 106/2/14
f 109/1/14 110/2/14 111/3/14
f 109/1/14 112/4/14 110/2/14
f 113/1/14 114/2/14 115/3/14
f 113/1/14 116/4/14 114/2/14
f 117/8/4 118/7/4 119/6/4
f 117/8/4 120/5/4 118/7/4
