mtllib material.mtl
o Default
v 4.109203338623047 -0.5078125 0.1860198974609375
v 4.109203338623047 1.4921875 0.1860198974609375
v 4.109203338623047 1.4921875 -0.3110198974609375
v 4.109203338623047 -0.5078125 -0.3110198974609375
v 4.109203338623047 -2.5078125 0.1860198974609375
v 4.109203338623047 -0.5078125 -0.3110198974609375
v 4.109203338623047 -0.5078125 0.1860198974609375
v 4.109203338623047 -2.5078125 -0.3110198974609375
v 3.515796661376953 1.4921875 0.1860198974609375
v 4.109203338623047 1.4921875 -0.3110198974609375
v 3.515796661376953 1.4921875 -0.3110198676586151
v 4.109203338623047 1.4921875 0.1860198974609375
v 3.515796661376953 -2.5078125 -0.3110198974609375
v 3.515796661376953 -0.5078125 0.1860198974609375
v 3.515796661376953 -0.5078125 -0.3110198974609375
v 3.515796661376953 -2.5078125 0.1860198974609375
v 3.515796661376953 -0.5078125 -0.3110198974609375
v 3.515796661376953 1.4921875 0.1860198974609375
v 3.515796661376953 1.4921875 -0.3110198676586151
v 3.515796661376953 -0.5078125 0.1860198974609375
v 4.109203338623047 -0.5078125 -0.3110198974609375
v 3.515796661376953 1.4921875 -0.3110198676586151
v 4.109203338623047 1.4921875 -0.3110198974609375
v 3.515796661376953 -0.5078125 -0.3110198974609375
v 4.109203338623047 -2.5078125 -0.3110198974609375
v 3.515796661376953 -0.5078125 -0.3110198974609375
v 4.109203338623047 -0.5078125 -0.3110198974609375
v 3.515796661376953 -2.5078125 -0.3110198974609375
v 3.515796661376953 -2.5078125 -0.3110198974609375
v 4.109203338623047 -2.5078125 0.1860198974609375
v 3.515796661376953 -2.5078125 0.1860198974609375
v 4.109203338623047 -2.5078125 -0.3110198974609375
v -0.6092033386230469 -2.5078125 -0.3735198974609375
v -0.015796661376953125 -2.5078125 0.1235198900103569
v -0.6092033386230469 -2.5078125 0.1235198900103569
v -0.015796661376953125 -2.5078125 -0.3735198974609375
v -0.6092033386230469 1.4921875 0.1235198900103569
v -0.015796661376953125 1.4921875 -0.3735198676586151
v -0.6092033386230469 1.4921875 -0.3735198676586151
v -0.015796661376953125 1.4921875 0.1235198900103569
v -0.015796661376953125 -2.5078125 0.1235198900103569
v -0.015796661376953125 -0.5078125 -0.3735198974609375
v -0.015796661376953125 -0.5078125 0.1235198974609375
v -0.015796661376953125 -2.5078125 -0.3735198974609375
v -0.015796661376953125 -0.5078125 0.1235198974609375
v -0.015796661376953125 1.4921875 -0.3735198676586151
v -0.015796661376953125 1.4921875 0.1235198900103569
v -0.015796661376953125 -0.5078125 -0.3735198974609375
v -0.015796661376953125 -0.5078125 -0.3735198974609375
v -0.6092033386230469 1.4921875 -0.3735198676586151
v -0.015796661376953125 1.4921875 -0.3735198676586151
v -0.6092033386230469 -0.5078125 -0.3735198974609375
v -0.015796661376953125 -2.5078125 -0.3735198974609375
v -0.6092033386230469 -0.5078125 -0.3735198974609375
v -0.015796661376953125 -0.5078125 -0.3735198974609375
v -0.6092033386230469 -2.5078125 -0.3735198974609375
v -0.6092033386230469 -0.5078125 -0.3735198974609375
v -0.6092033386230469 1.4921875 0.1235198900103569
v -0.6092033386230469 1.4921875 -0.3735198676586151
v -0.6092033386230469 -0.5078125 0.1235198974609375
v -0.6092033386230469 -2.5078125 -0.3735198974609375
v -0.6092033386230469 -0.5078125 0.1235198974609375
v -0.6092033386230469 -0.5078125 -0.3735198974609375
v -0.6092033386230469 -2.5078125 0.1235198900103569
v -0.6092033386230469 -0.5078125 0.1235198974609375
v -0.015796661376953125 1.4921875 0.1235198900103569
v -0.6092033386230469 1.4921875 0.1235198900103569
v -0.015796661376953125 -0.5078125 0.1235198974609375
v -0.6092033386230469 -2.5078125 0.1235198900103569
v -0.015796661376953125 -0.5078125 0.1235198974609375
v -0.6092033386230469 -0.5078125 0.1235198974609375
v -0.015796661376953125 -2.5078125 0.1235198900103569
v 3.515796661376953 -2.5078125 0.1860198974609375
v 4.109203338623047 -0.5078125 0.1860198974609375
v 3.515796661376953 -0.5078125 0.1860198974609375
v 4.109203338623047 -2.5078125 0.1860198974609375
v 3.515796661376953 -0.5078125 0.1860198974609375
v 4.109203338623047 1.4921875 0.1860198974609375
v 3.515796661376953 1.4921875 0.1860198974609375
v 4.109203338623047 -0.5078125 0.1860198974609375
vt 0 1
vt 1 0.6666666865348816
vt 1 1
vt 0 0.6666666865348816
vn 1 0 0
vn 0 1 0
vn -1 0 0
vn -5e-8 0 -1
vn 0 1e-8 -1
vn 0 0 -1
vn 0 -1 0
vn 0 0 1
g brokenfenceStand
usemtl fenceSheet
f 1/1/1 3/2/1 2/3/1
f 1/1/1 4/4/1 3/2/1
f 5/1/1 6/2/1 7/3/1
f 5/1/1 8/4/1 6/2/1
f 9/1/2 10/2/2 11/3/2
f 9/1/2 12/4/2 10/2/2
f 13/1/3 14/2/3 15/3/3
f 13/1/3 16/4/3 14/2/3
f 17/1/3 18/2/3 19/3/3
f 17/1/3 20/4/3 18/2/3
f 21/1/4 22/2/4 23/3/4
f 21/1/5 24/4/5 22/2/5
f 25/1/6 26/2/6 27/3/6
f 25/1/6 28/4/6 26/2/6
f 29/1/7 30/2/7 31/3/7
f 29/1/7 32/4/7 30/2/7
f 33/1/7 34/2/7 35/3/7
f 33/1/7 36/4/7 34/2/7
f 37/1/2 38/2/2 39/3/2
f 37/1/2 40/4/2 38/2/2
f 41/1/1 42/2/1 43/3/1
f 41/1/1 44/4/1 42/2/1
f 45/1/1 46/2/1 47/3/1
f 45/1/1 48/4/1 46/2/1
f 49/1/5 50/2/5 51/3/5
f 49/1/5 52/4/5 50/2/5
f 53/1/6 54/2/6 55/3/6
f 53/1/6 56/4/6 54/2/6
f 57/1/3 58/2/3 59/3/3
f 57/1/3 60/4/3 58/2/3
f 61/1/3 62/2/3 63/3/3
f 61/1/3 64/4/3 62/2/3
f 65/1/8 66/2/8 67/3/8
f 65/1/8 68/4/8 66/2/8
f 69/1/8 70/2/8 71/3/8
f 69/1/8 72/4/8 70/2/8
f 73/1/8 74/2/8 75/3/8
f 73/1/8 76/4/8 74/2/8
f 77/1/8 78/2/8 79/3/8
f 77/1/8 80/4/8 78/2/8
