mtllib material.mtl
o Default
v 2 0 0
v 2 1.5 0
v 4 1.5 0
v 4 0 0
v 0 0 0
v 2 1.5 0
v 0 1.5 0
v 2 0 0
v 3.9375 0 0
v 1.9375 1.5 0
v 3.9375 1.5 0
v 1.9375 0 0
v 1.9375 0 0
v -0.0625 1.5 0
v 1.9375 1.5 0
v -0.0625 0 0
v 3.9375 -1.40625 -0.0625
v 1.9375 0.09375 -0.0625
v 3.9375 0.09375 -0.0625
v 1.9375 -1.40625 -0.0625
v 1.9375 -1.40625 -0.0625
v -0.0625 0.09375 -0.0625
v 1.9375 0.09375 -0.0625
v -0.0625 -1.40625 -0.0625
v 0 -1.5 0
v 2 0 0
v 0 0 0
v 2 -1.5 0
v 2 -1.5 0
v 4 0 0
v 2 0 0
v 4 -1.5 0
vt 0 0.6666666865348816
vt 1 0.3333333432674408
vt 1 0.6666666865348816
vt 0 0.3333333432674408
vt 0 0
vt 1 0
vn 0 0 1
vn 0 0 -1
g brokenfence
usemtl fenceSheet
f 1/1/1 3/2/1 2/3/1
f 1/1/1 4/4/1 3/2/1
f 5/1/1 6/2/1 7/3/1
f 5/1/1 8/4/1 6/2/1
f 9/1/2 10/2/2 11/3/2
f 9/1/2 12/4/2 10/2/2
f 13/1/2 14/2/2 15/3/2
f 13/1/2 16/4/2 14/2/2
f 17/5/2 18/2/2 19/4/2
f 17/5/2 20/6/2 18/2/2
f 21/5/2 22/2/2 23/4/2
f 21/5/2 24/6/2 22/2/2
f 25/5/1 26/2/1 27/4/1
f 25/5/1 28/6/1 26/2/1
f 29/5/1 30/2/1 31/4/1
f 29/5/1 32/6/1 30/2/1
