mtllib material.mtl
o Default
v -1.7657966613769531 -2.125 -0.1235198974609375
v -1.7657966613769531 -0.125 -0.1235198974609375
v 0.23420333862304688 -0.125 -0.1235198974609375
v 0.23420333862304688 -2.125 -0.1235198974609375
v -3.765796661376953 -2.125 -0.1235198974609375
v -1.7657966613769531 -0.125 -0.1235198974609375
v -3.765796661376953 -0.125 -0.1235198974609375
v -1.7657966613769531 -2.125 -0.1235198974609375
v -1.8282966613769531 -2 -0.1860198974609375
v -3.828296661376953 0 -0.1860198974609375
v -1.8282966613769531 0 -0.1860198974609375
v -3.828296661376953 -2 -0.1860198974609375
v 0.17170333862304688 -2 -0.1860198974609375
v -1.8282966613769531 0 -0.1860198974609375
v 0.17170333862304688 0 -0.1860198974609375
v -1.8282966613769531 -2 -0.1860198974609375
v 0 -2.125 0
v 0.5934066772460938 -0.125 0
v 0 -0.125 0
v 0.5934066772460938 -2.125 0
v 0 -0.125 0
v 0.5934066772460938 1.875 0
v 0 1.875 0
v 0.5934066772460938 -0.125 0
v 0 -0.125 -0.497039794921875
v 0 1.875 0
v 0 1.875 -0.497039794921875
v 0 -0.125 0
v 0 -2.125 -0.497039794921875
v 0 -0.125 0
v 0 -0.125 -0.497039794921875
v 0 -2.125 0
v 0.5934066772460938 -2.125 -0.497039794921875
v 0 -0.125 -0.497039794921875
v 0.5934066772460938 -0.125 -0.497039794921875
v 0 -2.125 -0.497039794921875
v 0.5934066772460938 -0.125 -0.497039794921875
v 0 1.875 -0.497039794921875
v 0.5934066772460938 1.875 -0.497039794921875
v 0 -0.125 -0.497039794921875
v 0 1.875 0
v 0.5934066772460938 1.875 -0.497039794921875
v 0 1.875 -0.497039794921875
v 0.5934066772460938 1.875 0
v 0 -2.125 -0.497039794921875
v 0.5934066772460938 -2.125 0
v 0 -2.125 0
v 0.5934066772460938 -2.125 -0.497039794921875
v -4.3125 -2.125 -0.497039794921875
v -3.7190933227539062 -2.125 -8.296964892906544e-9
v -4.3125 -2.125 -8.296964892906544e-9
v -3.7190933227539062 -2.125 -0.497039794921875
v 0.5934066772460938 -0.125 0
v 0.5934066772460938 1.875 -0.497039794921875
v 0.5934066772460938 1.875 0
v 0.5934066772460938 -0.125 -0.497039794921875
v 0.5934066772460938 -2.125 0
v 0.5934066772460938 -0.125 -0.497039794921875
v 0.5934066772460938 -0.125 0
v 0.5934066772460938 -2.125 -0.497039794921875
v -4.3125 1.875 -4.911420603548322e-9
v -3.7190933227539062 1.875 -0.4970397651195526
v -4.3125 1.875 -0.4970397651195526
v -3.7190933227539062 1.875 -4.911420603548322e-9
v -3.7190933227539062 -0.125 -0.497039794921875
v -4.3125 1.875 -0.4970397651195526
v -3.7190933227539062 1.875 -0.4970397651195526
v -4.3125 -0.125 -0.497039794921875
v -3.7190933227539062 -2.125 -0.497039794921875
v -4.3125 -0.125 -0.497039794921875
v -3.7190933227539062 -0.125 -0.497039794921875
v -4.3125 -2.125 -0.497039794921875
v -3.7190933227539062 -2.125 -8.296964892906544e-9
v -3.7190933227539062 -0.125 -0.497039794921875
v -3.7190933227539062 -0.125 0
v -3.7190933227539062 -2.125 -0.497039794921875
v -3.7190933227539062 -0.125 0
v -3.7190933227539062 1.875 -0.4970397651195526
v -3.7190933227539062 1.875 -4.911420603548322e-9
v -3.7190933227539062 -0.125 -0.497039794921875
v -4.3125 -2.125 -8.296964892906544e-9
v -3.7190933227539062 -0.125 0
v -4.3125 -0.125 0
v -3.7190933227539062 -2.125 -8.296964892906544e-9
v -4.3125 -0.125 0
v -3.7190933227539062 1.875 -4.911420603548322e-9
v -4.3125 1.875 -4.911420603548322e-9
v -3.7190933227539062 -0.125 0
v -4.3125 -2.125 -0.497039794921875
v -4.3125 -0.125 0
v -4.3125 -0.125 -0.497039794921875
v -4.3125 -2.125 -8.296964892906544e-9
v -4.3125 -0.125 -0.497039794921875
v -4.3125 1.875 -4.911420603548322e-9
v -4.3125 1.875 -0.4970397651195526
v -4.3125 -0.125 0
vt 4 0.5000001192092896
vt 5 -1.1920928955078125e-7
vt 5 0.5000001192092896
vt 4 -1.1920928955078125e-7
vt 0 1
vt 1 0.5
vt 1 1
vt 0 0.5
vn 0 0 1
vn 0 0 -1
vn -1 0 0
vn 0 1 0
vn 0 -1 0
vn 1 0 0
vn 0 1e-8 -1
g woodFence
usemtl woodenFence
f 1/1/1 3/2/1 2/3/1
f 1/1/1 4/4/1 3/2/1
f 5/1/1 6/2/1 7/3/1
f 5/1/1 8/4/1 6/2/1
f 9/1/2 10/2/2 11/3/2
f 9/1/2 12/4/2 10/2/2
f 13/1/2 14/2/2 15/3/2
f 13/1/2 16/4/2 14/2/2
f 17/5/1 18/6/1 19/7/1
f 17/5/1 20/8/1 18/6/1
f 21/5/1 22/6/1 23/7/1
f 21/5/1 24/8/1 22/6/1
f 25/5/3 26/6/3 27/7/3
f 25/5/3 28/8/3 26/6/3
f 29/5/3 30/6/3 31/7/3
f 29/5/3 32/8/3 30/6/3
f 33/5/2 34/6/2 35/7/2
f 33/5/2 36/8/2 34/6/2
f 37/5/2 38/6/2 39/7/2
f 37/5/2 40/8/2 38/6/2
f 41/5/4 42/6/4 43/7/4
f 41/5/4 44/8/4 42/6/4
f 45/5/5 46/6/5 47/7/5
f 45/5/5 48/8/5 46/6/5
f 49/5/5 50/6/5 51/7/5
f 49/5/5 52/8/5 50/6/5
f 53/5/6 54/6/6 55/7/6
f 53/5/6 56/8/6 54/6/6
f 57/5/6 58/6/6 59/7/6
f 57/5/6 60/8/6 58/6/6
f 61/5/4 62/6/4 63/7/4
f 61/5/4 64/8/4 62/6/4
f 65/5/7 66/6/7 67/7/7
f 65/5/7 68/8/7 66/6/7
f 69/5/2 70/6/2 71/7/2
f 69/5/2 72/8/2 70/6/2
f 73/5/6 74/6/6 75/7/6
f 73/5/6 76/8/6 74/6/6
f 77/5/6 78/6/6 79/7/6
f 77/5/6 80/8/6 78/6/6
f 81/5/1 82/6/1 83/7/1
f 81/5/1 84/8/1 82/6/1
f 85/5/1 86/6/1 87/7/1
f 85/5/1 88/8/1 86/6/1
f 89/5/3 90/6/3 91/7/3
f 89/5/3 92/8/3 90/6/3
f 93/5/3 94/6/3 95/7/3
f 93/5/3 96/8/3 94/6/3
