mtllib material.mtl
o Default
v -2 0 -2
v -2 2 -2
v -4 2 -2
v -4 0 -2
v 0 0 -2
v -2 2 -2
v 0 2 -2
v -2 0 -2
v -4 0 -2
v -2 2 -2
v -4 2 -2
v -2 0 -2
v -4 0 0
v -2 2 0
v -4 2 0
v -2 0 0
v -2 0 0
v 0 2 0
v -2 2 0
v 0 0 0
v -2 0 -2
v 0 2 -2
v -2 2 -2
v 0 0 -2
v 0 0 0
v -2 2 0
v 0 2 0
v -2 0 0
v -2 0 0
v -4 2 0
v -2 2 0
v -4 0 0
vt 0.5 0
vt 1 0.5
vt 0.5 0.5
vt 1 0
vn 0 0 -1
vn 0 0 1
g spikes
usemtl 0
f 1/1/1 3/2/1 2/3/1
f 1/1/1 4/4/1 3/2/1
f 5/1/1 6/2/1 7/3/1
f 5/1/1 8/4/1 6/2/1
f 9/1/2 10/2/2 11/3/2
f 9/1/2 12/4/2 10/2/2
f 13/1/2 14/2/2 15/3/2
f 13/1/2 16/4/2 14/2/2
f 17/1/2 18/2/2 19/3/2
f 17/1/2 20/4/2 18/2/2
f 21/1/2 22/2/2 23/3/2
f 21/1/2 24/4/2 22/2/2
f 25/1/1 26/2/1 27/3/1
f 25/1/1 28/4/1 26/2/1
f 29/1/1 30/2/1 31/3/1
f 29/1/1 32/4/1 30/2/1
