mtllib material.mtl
o Default
v -10.375 2 12.936949729919434
v -10.375 2 10.936949729919434
v -8.375 1.125 10.936949729919434
v -8.375 1.125 12.936949729919434
v -10.375 2 10.936949729919434
v -8.375 1.125 8.9375
v -10.375 2 8.937150001525879
v -8.375 1.125 10.936949729919434
v -10.375 2 8.937150001525879
v -8.375 1.125 6.9375
v -10.375 2 6.9375
v -8.375 1.125 8.9375
v -12.375 2.9375 8.937150001525879
v -10.375 2 6.9375
v -12.375 2.9375 6.9375
v -10.375 2 8.937150001525879
v -12.375 2.9375 10.936949729919434
v -10.375 2 8.937150001525879
v -12.375 2.9375 8.937150001525879
v -10.375 2 10.936949729919434
v -12.375 2.9375 12.936949729919434
v -10.375 2 10.936949729919434
v -12.375 2.9375 10.936949729919434
v -10.375 2 12.936949729919434
v -14.375 4 12.936949729919434
v -12.375 2.9375 10.936949729919434
v -14.375 4 10.936949729919434
v -12.375 2.9375 12.936949729919434
v -14.375 4 10.936949729919434
v -12.375 2.9375 8.937150001525879
v -14.375 4 8.9375
v -12.375 2.9375 10.936949729919434
v -14.375 4 8.9375
v -12.375 2.9375 6.9375
v -14.375 4 6.9375
v -12.375 2.9375 8.937150001525879
v -14.375 2 12.9375
v -12.375 2.9375 12.936949729919434
v -14.375 4 12.936949729919434
v -12.375 2 12.9375
v -12.375 2 12.9375
v -10.375 2 12.936949729919434
v -12.375 2.9375 12.936949729919434
v -10.375 2 12.936949729919434
v -12.375 0 12.9375
v -10.375 2 12.936949729919434
v -12.375 2 12.9375
v -10.375 0 12.9375
v -14.375 0 12.9375
v -12.375 2 12.9375
v -14.375 2 12.9375
v -12.375 0 12.9375
v -14.375 -2 12.9375
v -12.375 0 12.9375
v -14.375 0 12.9375
v -12.375 -2 12.9375
v -12.375 -2 12.9375
v -10.375 0 12.9375
v -12.375 0 12.9375
v -10.375 -2 12.9375
v -10.375 -2 12.9375
v -8.375 0 12.9375
v -10.375 0 12.9375
v -8.375 -2 12.9375
v -10.375 0 12.9375
v -8.375 1.125 12.936949729919434
v -10.375 2 12.936949729919434
v -8.375 0 12.9375
v -14.375 -2 10.9375
v -14.375 0 12.9375
v -14.375 0 10.9375
v -14.375 -2 12.9375
v -14.375 0 10.9375
v -14.375 2 12.9375
v -14.375 2 10.9375
v -14.375 0 12.9375
v -14.375 2 10.9375
v -14.375 4 12.936949729919434
v -14.375 4 10.936949729919434
v -14.375 2 12.9375
v -14.375 2 8.9375
v -14.375 4 10.936949729919434
v -14.375 4 8.9375
v -14.375 2 10.9375
v -14.375 0 8.9375
v -14.375 2 10.9375
v -14.375 2 8.9375
v -14.375 0 10.9375
v -14.375 -2 8.9375
v -14.375 0 10.9375
v -14.375 0 8.9375
v -14.375 -2 10.9375
v -14.375 0 6.9375
v -14.375 2 8.9375
v -14.375 2 6.9375
v -14.375 0 8.9375
v -14.375 -2 6.9375
v -14.375 0 8.9375
v -14.375 0 6.9375
v -14.375 -2 8.9375
v -14.375 2 6.9375
v -14.375 4 8.9375
v -14.375 4 6.9375
v -14.375 2 8.9375
v -12.375 2 6.9375
v -14.375 4 6.9375
v -12.375 2.9375 6.9375
v -14.375 2 6.9375
v -10.375 2 6.9375
v -12.375 2.9375 6.9375
v -10.375 2 6.9375
v -12.375 2 6.9375
v -10.375 0 6.9375
v -12.375 2 6.9375
v -10.375 2 6.9375
v -12.375 0 6.9375
v -12.375 0 6.9375
v -14.375 2 6.9375
v -12.375 2 6.9375
v -14.375 0 6.9375
v -12.375 -2 6.9375
v -14.375 0 6.9375
v -12.375 0 6.9375
v -14.375 -2 6.9375
v -10.375 -2 6.9375
v -12.375 0 6.9375
v -10.375 0 6.9375
v -12.375 -2 6.9375
v -8.375 -2 6.9375
v -10.375 0 6.9375
v -8.375 0 6.9375
v -10.375 -2 6.9375
v -8.375 0 6.9375
v -10.375 2 6.9375
v -8.375 1.125 6.9375
v -10.375 0 6.9375
v -8.375 0 8.9375
v -8.375 1.125 6.9375
v -8.375 1.125 8.9375
v -8.375 0 6.9375
v -8.375 0 10.9375
v -8.375 1.125 8.9375
v -8.375 1.125 10.936949729919434
v -8.375 0 8.9375
v -8.375 -2 10.9375
v -8.375 0 8.9375
v -8.375 0 10.9375
v -8.375 -2 8.9375
v -8.375 -2 8.9375
v -8.375 0 6.9375
v -8.375 0 8.9375
v -8.375 -2 6.9375
v -8.375 -2 12.9375
v -8.375 0 10.9375
v -8.375 0 12.9375
v -8.375 -2 10.9375
v -8.375 0 12.9375
v -8.375 1.125 10.936949729919434
v -8.375 1.125 12.936949729919434
v -8.375 0 10.9375
v -10.375 -2 6.9375
v -8.375 -2 8.9375
v -10.375 -2 8.93755054473877
v -8.375 -2 6.9375
v -10.375 -2 8.93755054473877
v -8.375 -2 10.9375
v -10.375 -2 10.937749862670898
v -8.375 -2 8.9375
v -10.375 -2 10.937749862670898
v -8.375 -2 12.9375
v -10.375 -2 12.9375
v -8.375 -2 10.9375
v -12.375 -2 10.937749862670898
v -10.375 -2 12.9375
v -12.375 -2 12.9375
v -10.375 -2 10.937749862670898
v -12.375 -2 8.93755054473877
v -10.375 -2 10.937749862670898
v -12.375 -2 10.937749862670898
v -10.375 -2 8.93755054473877
v -12.375 -2 6.9375
v -10.375 -2 8.93755054473877
v -12.375 -2 8.93755054473877
v -10.375 -2 6.9375
v -14.375 -2 6.9375
v -12.375 -2 8.93755054473877
v -14.375 -2 8.9375
v -12.375 -2 6.9375
v -14.375 -2 8.9375
v -12.375 -2 10.937749862670898
v -14.375 -2 10.9375
v -12.375 -2 8.93755054473877
v -14.375 -2 10.9375
v -12.375 -2 12.9375
v -14.375 -2 12.9375
v -12.375 -2 10.937749862670898
vt 0.4444444477558136 0.8333333134651184
vt 0.3333333432674408 0.75
vt 0.4444444477558136 0.75
vt 0.3333333432674408 0.8333333134651184
vt 0.5555555820465088 0.8333333730697632
vt 0.5555555820465088 0.75
vt 0.4444444477558136 0.8333333730697632
vt 0.6666666865348816 0.8333333730697632
vt 0.6666666865348816 0.75
vt 0.6666666865348816 0.9166666865348816
vt 0.5555555820465088 0.8333333134651184
vt 0.6666666865348816 0.8333333134651184
vt 0.5555555820465088 0.9166666865348816
vt 0.555555522441864 0.9166666865348816
vt 0.555555522441864 0.8333333134651184
vt 0.4444444477558136 0.9166666865348816
vt 0.3333333432674408 0.8333333730697632
vt 0.3333333432674408 0.9166666865348816
vt 0.4444444477558136 1
vt 0.3333333432674408 1
vt 0.5555555820465088 1
vt 0.4444444477558136 0.9166666269302368
vt 0.5555555820465088 0.9166666269302368
vt 0.6666666865348816 1
vt 0.3333333432674408 0.4166666567325592
vt 0.4444441795349121 0.45572951436042786
vt 0.3333328366279602 0.4999999701976776
vt 0.4444444179534912 0.41666704416275024
vt 0.4444444477558136 0.4166666865348816
vt 0.555555522441864 0.41666680574417114
vt 0.4444443881511688 0.4557291865348816
vt 0.4444444477558136 0.3333333432674408
vt 0.5555555820465088 0.4166666567325592
vt 0.4444444477558136 0.4166666567325592
vt 0.5555555820465088 0.3333333432674408
vt 0.3333333432674408 0.3333333730697632
vt 0.3333333432674408 0.4166666865348816
vt 0.4444444477558136 0.3333333730697632
vt 0.3333333432674408 0.25
vt 0.4444444477558136 0.3333333134651184
vt 0.3333333432674408 0.3333333134651184
vt 0.4444444477558136 0.25
vt 0.5555555820465088 0.25
vt 0.6666666865348816 0.3333333432674408
vt 0.6666666865348816 0.25
vt 0.6666664481163025 0.38020870089530945
vt 0.5555551052093506 0.4166666865348816
vt 0.6666666865348816 0.33333367109298706
vt 0.5555555820465088 0.5
vt 0.6666666865348816 0.5833333134651184
vt 0.5555555820465088 0.5833333134651184
vt 0.6666666865348816 0.5
vt 0.6666666865348816 0.6666666865348816
vt 0.5555555820465088 0.6666666865348816
vt 0.4444444477558136 0.6666666865348816
vt 0.4444444477558136 0.5833333134651184
vt 0.444444477558136 0.5
vt 0.444444477558136 0.5833333134651184
vt 0.3333333432674408 0.5833333134651184
vt 0.3333333432674408 0.6666666865348816
vt 0.3333333432674408 0.5
vt 0.4444444477558136 0.5
vt 0.6666666865348816 0.4166666567325592
vt 0.3333333432674408 0.3333333432674408
vt 0.4444441497325897 0.4166668653488159
vt 0.33333316445350647 0.3802083134651184
vt 0.4444444477558136 0.3333335518836975
vt 0.8888888955116272 0.625
vt 0.9999999403953552 0.6718751192092896
vt 0.8888887763023376 0.671875
vt 1.0000001192092896 0.6250001192092896
vt 0.7763888835906982 0.6229166388511658
vt 0.8875001072883606 0.6697915196418762
vt 0.7763890027999878 0.6697916388511658
vt 0.887499988079071 0.6229165196418762
vt 0.7777777910232544 0.5
vt 0.8888888955116272 0.5833333134651184
vt 0.7777777910232544 0.5833333134651184
vt 0.8888888955116272 0.5
vt 1 0.5833333134651184
vt 1 0.5
vt 0.6625000238418579 0.6229166984558105
vt 0.7736112475395203 0.669791579246521
vt 0.6625001430511475 0.6697916388511658
vt 0.7736111283302307 0.622916579246521
vt 0.3333333432674408 4.967053879312289e-9
vt 0.4444444477558136 0.0833333358168602
vt 0.3333333432674408 0.0833333358168602
vt 0.4444444477558136 4.967053879312289e-9
vt 0.4444444477558136 -1.9868215517249155e-8
vt 0.5555555820465088 0.08333335071802139
vt 0.4444444477558136 0.08333335071802139
vt 0.5555555820465088 -1.9868215517249155e-8
vt 0.5555555820465088 0
vt 0.6666666865348816 0.0833333432674408
vt 0.5555555820465088 0.0833333432674408
vt 0.6666666865348816 0
vt 0.4444444477558136 0.1666666716337204
vt 0.3333333432674408 0.1666666716337204
vt 0.5555555820465088 0.1666666716337204
vt 0.5555555820465088 0.0833333358168602
vt 0.6666666865348816 0.1666666716337204
vt 0.6666666865348816 0.0833333358168602
vt 0.3333333432674408 0.1666666567325592
vt 0.4444444179534912 0.2500021159648895
vt 0.333333283662796 0.2499999850988388
vt 0.444444477558136 0.16666670143604279
vt 0.5555555820465088 0.2499999850988388
vt 0.4444444477558136 0.2499999850988388
vt 0.5555555820465088 0.1666666865348816
vt 0.6666666865348816 0.1666666865348816
vn 0.40081883 0.91615733 0
vn 0.42443388 0.90545894 0
vn 0.46915523 0.88311572 0
vn 0.00014617 0.00027514 0.99999995
vn 0 0.00058695 0.99999983
vn 0.00027513 0.00058695 0.99999979
vn 0 0 0
vn 0.00027514 0 0.99999996
vn 0 0.00027514 0.99999996
vn 0 0 1
vn 0.00012037 0.00027514 0.99999995
vn 0 0.00048913 0.99999988
vn -1 0 0
vn 0 0 -1
vn 1 0 0
vn 0 -1 0
g slopePathBlock
usemtl pathblockStraight-export
f 1/1/1 3/2/1 2/3/1
f 1/1/1 4/4/1 3/2/1
f 5/5/1 6/3/1 7/6/1
f 5/5/1 8/7/1 6/3/1
f 9/8/1 10/6/1 11/9/1
f 9/8/1 12/5/1 10/6/1
f 13/10/2 14/11/2 15/12/2
f 13/10/2 16/13/2 14/11/2
f 17/14/2 18/1/2 19/15/2
f 17/14/2 20/16/2 18/1/2
f 21/16/2 22/17/2 23/7/2
f 21/16/2 24/18/2 22/17/2
f 25/19/3 26/18/3 27/16/3
f 25/19/3 28/20/3 26/18/3
f 29/21/3 30/22/3 31/23/3
f 29/21/3 32/19/3 30/22/3
f 33/24/3 34/13/3 35/10/3
f 33/24/3 36/21/3 34/13/3
f 37/25/4 38/26/4 39/27/4
f 37/25/5 40/28/5 38/26/5
f 41/29/6 42/30/6 43/31/6
f 41/29/7 44/30/7 42/30/7
f 45/32/8 46/33/8 47/34/8
f 45/32/9 48/35/9 46/33/9
f 49/36/10 50/29/10 51/37/10
f 49/36/10 52/38/10 50/29/10
f 53/39/10 54/40/10 55/41/10
f 53/39/10 56/42/10 54/40/10
f 57/42/10 58/35/10 59/32/10
f 57/42/10 60/43/10 58/35/10
f 61/43/10 62/44/10 63/35/10
f 61/43/10 64/45/10 62/44/10
f 65/35/11 66/46/11 67/47/11
f 65/35/12 68/48/12 66/46/12
f 69/49/13 70/50/13 71/51/13
f 69/49/13 72/52/13 70/50/13
f 73/51/13 74/53/13 75/54/13
f 73/51/13 76/50/13 74/53/13
f 77/53/13 78/6/13 79/54/13
f 77/53/13 80/9/13 78/6/13
f 81/54/13 82/3/13 83/55/13
f 81/54/13 84/6/13 82/3/13
f 85/56/13 86/54/13 87/55/13
f 85/56/13 88/51/13 86/54/13
f 89/57/13 90/51/13 91/58/13
f 89/57/13 92/49/13 90/51/13
f 93/59/13 94/55/13 95/60/13
f 93/59/13 96/56/13 94/55/13
f 97/61/13 98/56/13 99/59/13
f 97/61/13 100/62/13 98/56/13
f 101/55/13 102/2/13 103/60/13
f 101/55/13 104/3/13 102/2/13
f 105/33/14 106/52/14 107/49/14
f 105/33/14 108/63/14 106/52/14
f 109/34/7 110/49/7 111/62/7
f 109/34/14 112/33/14 110/49/14
f 113/32/14 114/33/14 115/34/14
f 113/32/14 116/35/14 114/33/14
f 117/35/14 118/63/14 119/33/14
f 117/35/14 120/44/14 118/63/14
f 121/43/14 122/44/14 123/35/14
f 121/43/14 124/45/14 122/44/14
f 125/42/14 126/35/14 127/32/14
f 125/42/14 128/43/14 126/35/14
f 129/39/14 130/32/14 131/64/14
f 129/39/14 132/42/14 130/32/14
f 133/41/14 134/65/14 135/66/14
f 133/41/14 136/67/14 134/65/14
f 137/68/15 138/69/15 139/70/15
f 137/68/15 140/71/15 138/69/15
f 141/72/15 142/73/15 143/74/15
f 141/72/15 144/75/15 142/73/15
f 145/76/15 146/77/15 147/78/15
f 145/76/15 148/79/15 146/77/15
f 149/79/15 150/80/15 151/77/15
f 149/79/15 152/81/15 150/80/15
f 153/52/15 154/78/15 155/50/15
f 153/52/15 156/76/15 154/78/15
f 157/82/15 158/83/15 159/84/15
f 157/82/15 160/85/15 158/83/15
f 161/86/16 162/87/16 163/88/16
f 161/86/16 164/89/16 162/87/16
f 165/90/16 166/91/16 167/92/16
f 165/90/16 168/93/16 166/91/16
f 169/94/16 170/95/16 171/96/16
f 169/94/16 172/97/16 170/95/16
f 173/88/16 174/98/16 175/99/16
f 173/88/16 176/87/16 174/98/16
f 177/87/16 178/100/16 179/98/16
f 177/87/16 180/101/16 178/100/16
f 181/101/16 182/102/16 183/100/16
f 181/101/16 184/103/16 182/102/16
f 185/104/16 186/105/16 187/106/16
f 185/104/16 188/107/16 186/105/16
f 189/98/16 190/108/16 191/109/16
f 189/98/16 192/100/16 190/108/16
f 193/110/16 194/45/16 195/43/16
f 193/110/16 196/111/16 194/45/16
