mtllib material.mtl
o Default
v 8.25 0 11.999449729919434
v 8.25 0 9.999449729919434
v 10.25 0 9.999449729919434
v 10.25 0 11.999449729919434
v 8.25 0 9.999449729919434
v 10.25 0 8
v 8.25 0 7.999650001525879
v 10.25 0 9.999449729919434
v 8.25 0 7.999650001525879
v 10.25 0 6
v 8.25 0 6
v 10.25 0 8
v 6.25 0 7.999650001525879
v 8.25 0 6
v 6.25 0 6
v 8.25 0 7.999650001525879
v 6.25 0 9.999449729919434
v 8.25 0 7.999650001525879
v 6.25 0 7.999650001525879
v 8.25 0 9.999449729919434
v 6.25 0 11.999449729919434
v 8.25 0 9.999449729919434
v 6.25 0 9.999449729919434
v 8.25 0 11.999449729919434
v 4.25 0 11.999449729919434
v 6.25 0 9.999449729919434
v 4.25 0 9.999449729919434
v 6.25 0 11.999449729919434
v 4.25 0 9.999449729919434
v 6.25 0 7.999650001525879
v 4.25 0 8
v 6.25 0 9.999449729919434
v 4.25 0 8
v 6.25 0 6
v 4.25 0 6
v 6.25 0 7.999650001525879
v 8.25 -2 12
v 10.25 0 11.999449729919434
v 8.25 0 11.999449729919434
v 10.25 -2 12
v 6.25 -2 12
v 8.25 0 11.999449729919434
v 6.25 0 11.999449729919434
v 8.25 -2 12
v 4.25 -2 12
v 6.25 0 11.999449729919434
v 4.25 0 11.999449729919434
v 6.25 -2 12
v 10.25 -2 12
v 10.25 0 9.999449729919434
v 10.25 0 11.999449729919434
v 10.25 -2 10
v 10.25 -2 10
v 10.25 0 8
v 10.25 0 9.999449729919434
v 10.25 -2 8
v 10.25 -2 8
v 10.25 0 6
v 10.25 0 8
v 10.25 -2 6
v 10.25 -2 6
v 8.25 0 6
v 10.25 0 6
v 8.25 -2 6
v 8.25 -2 6
v 6.25 0 6
v 8.25 0 6
v 6.25 -2 6
v 6.25 -2 6
v 4.25 0 6
v 6.25 0 6
v 4.25 -2 6
v 4.25 -2 6
v 4.25 0 8
v 4.25 0 6
v 4.25 -2 8
v 4.25 -2 8
v 4.25 0 9.999449729919434
v 4.25 0 8
v 4.25 -2 10
v 4.25 -2 10
v 4.25 0 11.999449729919434
v 4.25 0 9.999449729919434
v 4.25 -2 12
v 4.25 -2 10
v 6.25 -2 12
v 4.25 -2 12
v 6.25 -2 10.000249862670898
v 6.25 -2 10.000249862670898
v 8.25 -2 12
v 6.25 -2 12
v 8.25 -2 10.000249862670898
v 8.25 -2 10.000249862670898
v 10.25 -2 12
v 8.25 -2 12
v 10.25 -2 10
v 8.25 -2 8.000049591064453
v 10.25 -2 10
v 8.25 -2 10.000249862670898
v 10.25 -2 8
v 6.25 -2 8.000049591064453
v 8.25 -2 10.000249862670898
v 6.25 -2 10.000249862670898
v 8.25 -2 8.000049591064453
v 8.25 -2 6
v 10.25 -2 8
v 8.25 -2 8.000049591064453
v 10.25 -2 6
v 6.25 -2 6
v 8.25 -2 8.000049591064453
v 6.25 -2 8.000049591064453
v 8.25 -2 6
v 4.25 -2 8
v 6.25 -2 10.000249862670898
v 4.25 -2 10
v 6.25 -2 8.000049591064453
v 4.25 -2 6
v 6.25 -2 8.000049591064453
v 4.25 -2 8
v 6.25 -2 6
vt 0.5555555820465088 0.75
vt 0.6666666865348816 0.8333333730697632
vt 0.5555555820465088 0.8333333730697632
vt 0.6666666865348816 0.75
vt 0.6666666865348816 0.9166666865348816
vt 0.5555555820465088 0.9166666865348816
vt 0.6666666865348816 1
vt 0.5555555820465088 1
vt 0.4444444477558136 0.9166666865348816
vt 0.4444444477558136 1
vt 0.4444444477558136 0.8333333730697632
vt 0.4444444477558136 0.75
vt 0.5555555820465088 0.8333333134651184
vt 0.4444444477558136 0.8333333134651184
vt 0.3333333432674408 0.75
vt 0.3333333432674408 0.8333333134651184
vt 0.3333333432674408 0.8333333730697632
vt 0.3333333432674408 0.9166666865348816
vt 0.3333333432674408 0.9166666269302368
vt 0.3333333432674408 1
vt 0.4444444477558136 0.9166666269302368
vt 0.5555555820465088 0.6145833730697632
vt 0.6666666865348816 0.6979166865348816
vt 0.5555555820465088 0.6979166865348816
vt 0.6666666865348816 0.6145833730697632
vt 0.4444444477558136 0.6145833730697632
vt 0.4444444477558136 0.6979166865348816
vt 0.3333333432674408 0.6145833730697632
vt 0.3333333432674408 0.6979166865348816
vt 0.7777777910232544 0.6979166865348816
vt 0.7777777910232544 0.6145833730697632
vt 0.8888888955116272 0.6979166865348816
vt 0.8888888955116272 0.6145833730697632
vt 1 0.6979166865348816
vt 1 0.6145833730697632
vt 9.934107758624577e-9 0.6145833730697632
vt 0.1111111119389534 0.6979166865348816
vt 9.934107758624577e-9 0.6979166865348816
vt 0.1111111119389534 0.6145833730697632
vt 0.2222222238779068 0.6979166865348816
vt 0.2222222238779068 0.6145833730697632
vt 0.3333333432674408 0
vt 0.4444444477558136 0.0833333358168602
vt 0.3333333432674408 0.0833333358168602
vt 0.4444444477558136 0
vt 0.3333333432674408 0.0833333432674408
vt 0.4444444477558136 0.1666666865348816
vt 0.3333333432674408 0.1666666865348816
vt 0.4444444477558136 0.0833333432674408
vt 0.5555555820465088 0.1666666865348816
vt 0.6666666865348816 0.25
vt 0.5555555820465088 0.25
vt 0.6666666865348816 0.1666666865348816
vt 0.4444444477558136 0.25
vt 0.4444444477558136 0.08333335816860199
vt 0.5555555820465088 0.1666666567325592
vt 0.4444444477558136 0.1666666567325592
vt 0.5555555820465088 0.08333335816860199
vt 0.3333333432674408 0.1666666716337204
vt 0.3333333432674408 0.25
vt 0.4444444477558136 0.1666666716337204
vt 0.555555522441864 0.08333336561918259
vt 0.6666666865348816 0.166666641831398
vt 0.555555522441864 0.166666641831398
vt 0.6666666865348816 0.08333336561918259
vt 0.4444444477558136 2.4835268064293814e-8
vt 0.555555522441864 0.083333320915699
vt 0.4444444477558136 0.083333320915699
vt 0.555555522441864 2.4835268064293814e-8
vt 0.555555522441864 9.934107758624577e-9
vt 0.6666666269302368 0.08333335071802139
vt 0.555555522441864 0.08333335071802139
vt 0.6666666269302368 9.934107758624577e-9
vn 0 1 0
vn 0 0.00027514 0.99999996
vn 1 0 0
vn 0 0 -1
vn -1 0 0
vn 0 -1 0
g splitPathBlock
usemtl splitpathBlock-export
f 1/1/1 3/2/1 2/3/1
f 1/1/1 4/4/1 3/2/1
f 5/3/1 6/5/1 7/6/1
f 5/3/1 8/2/1 6/5/1
f 9/6/1 10/7/1 11/8/1
f 9/6/1 12/5/1 10/7/1
f 13/9/1 14/8/1 15/10/1
f 13/9/1 16/6/1 14/8/1
f 17/11/1 18/6/1 19/9/1
f 17/11/1 20/3/1 18/6/1
f 21/12/1 22/13/1 23/14/1
f 21/12/1 24/1/1 22/13/1
f 25/15/1 26/14/1 27/16/1
f 25/15/1 28/12/1 26/14/1
f 29/17/1 30/9/1 31/18/1
f 29/17/1 32/11/1 30/9/1
f 33/19/1 34/10/1 35/20/1
f 33/19/1 36/21/1 34/10/1
f 37/22/2 38/23/2 39/24/2
f 37/22/2 40/25/2 38/23/2
f 41/26/2 42/24/2 43/27/2
f 41/26/2 44/22/2 42/24/2
f 45/28/2 46/27/2 47/29/2
f 45/28/2 48/26/2 46/27/2
f 49/25/3 50/30/3 51/23/3
f 49/25/3 52/31/3 50/30/3
f 53/31/3 54/32/3 55/30/3
f 53/31/3 56/33/3 54/32/3
f 57/33/3 58/34/3 59/32/3
f 57/33/3 60/35/3 58/34/3
f 61/36/4 62/37/4 63/38/4
f 61/36/4 64/39/4 62/37/4
f 65/39/4 66/40/4 67/37/4
f 65/39/4 68/41/4 66/40/4
f 69/41/4 70/29/4 71/40/4
f 69/41/4 72/28/4 70/29/4
f 73/28/5 74/27/5 75/29/5
f 73/28/5 76/26/5 74/27/5
f 77/26/5 78/24/5 79/27/5
f 77/26/5 80/22/5 78/24/5
f 81/22/5 82/23/5 83/24/5
f 81/22/5 84/25/5 82/23/5
f 85/42/6 86/43/6 87/44/6
f 85/42/6 88/45/6 86/43/6
f 89/46/6 90/47/6 91/48/6
f 89/46/6 92/49/6 90/47/6
f 93/50/6 94/51/6 95/52/6
f 93/50/6 96/53/6 94/51/6
f 97/47/6 98/52/6 99/54/6
f 97/47/6 100/50/6 98/52/6
f 101/55/6 102/56/6 103/57/6
f 101/55/6 104/58/6 102/56/6
f 105/59/6 106/54/6 107/60/6
f 105/59/6 108/61/6 106/54/6
f 109/62/6 110/63/6 111/64/6
f 109/62/6 112/65/6 110/63/6
f 113/66/6 114/67/6 115/68/6
f 113/66/6 116/69/6 114/67/6
f 117/70/6 118/71/6 119/72/6
f 117/70/6 120/73/6 118/71/6
