mtllib material.mtl
o Default
v -4 0 0.00005122680522617884
v -4 0 1.9998509883880615
v -2 0 2.0000016689300537
v -2 0 0.0000016357421372958925
v -4.75 -1.9375 3.1250011920928955
v -4.375 0.0625 4.750001430511475
v -4.75 0.0625 3.1250011920928955
v -4.75 -1.9375 5.125001430511475
v -4.75 -1.9375 1.1250011920928955
v -4.75 0.0625 3.1250011920928955
v -4.75 0.0625 1.1250011920928955
v -4.75 -1.9375 3.1250011920928955
v -4.75 -1.9375 -0.8749987483024597
v -4.75 0.0625 1.1250011920928955
v -4.75 0.0625 -0.8749987483024597
v -4.75 -1.9375 1.1250011920928955
v -4.75 -1.9375 -2.8749988079071045
v -4.75 0.0625 -0.8749987483024597
v -4.375 0.0625 -2.4999988079071045
v -4.75 -1.9375 -0.8749987483024597
v 1.25 -1.9375 5.125001430511475
v 2.875 0.0625 4.750001430511475
v 1.25 0.0625 5.125001430511475
v 3.25 -1.9375 5.125001430511475
v -0.75 -1.9375 5.125001430511475
v 1.25 0.0625 5.125001430511475
v -0.75 0.0625 5.125001430511475
v 1.25 -1.9375 5.125001430511475
v -2.75 -1.9375 5.125001430511475
v -0.75 0.0625 5.125001430511475
v -2.75 0.0625 5.125001430511475
v -0.75 -1.9375 5.125001430511475
v -4.75 -1.9375 5.125001430511475
v -2.75 0.0625 5.125001430511475
v -4.375 0.0625 4.750001430511475
v -2.75 -1.9375 5.125001430511475
v 3.25 -1.9375 5.125001430511475
v 3.25 0.0625 3.1250011920928955
v 2.875 0.0625 4.750001430511475
v 3.25 -1.9375 3.1250011920928955
v 3.25 -1.9375 3.1250011920928955
v 3.25 0.0625 1.1250011920928955
v 3.25 0.0625 3.1250011920928955
v 3.25 -1.9375 1.1250011920928955
v 3.25 -1.9375 1.1250011920928955
v 3.25 0.0625 -0.8749987483024597
v 3.25 0.0625 1.1250011920928955
v 3.25 -1.9375 -0.8749987483024597
v 3.25 -1.9375 -0.8749987483024597
v 2.875 0.0625 -2.4374988079071045
v 3.25 0.0625 -0.8749987483024597
v 3.25 -1.9375 -2.8749988079071045
v 3.25 -1.9375 -2.8749988079071045
v 1.25 0.0625 -2.8749988079071045
v 2.875 0.0625 -2.4374988079071045
v 1.25 -1.9375 -2.8749988079071045
v 1.25 -1.9375 -2.8749988079071045
v -0.75 0.0625 -2.8749988079071045
v 1.25 0.0625 -2.8749988079071045
v -0.75 -1.9375 -2.8749988079071045
v -0.75 -1.9375 -2.8749988079071045
v -2.75 0.0625 -2.8749988079071045
v -0.75 0.0625 -2.8749988079071045
v -2.75 -1.9375 -2.8749988079071045
v -2.75 -1.9375 -2.8749988079071045
v -4.375 0.0625 -2.4999988079071045
v -2.75 0.0625 -2.8749988079071045
v -4.75 -1.9375 -2.8749988079071045
v -4.75 -1.9375 -2.8749988079071045
v -2.75 -1.9375 -0.8749487996101379
v -4.75 -1.9375 -0.8749987483024597
v -2.75 -1.9375 -2.8749988079071045
v -4.75 -1.9375 -0.8749987483024597
v -2.75 -1.9375 1.1252511739730835
v -4.75 -1.9375 1.1250011920928955
v -2.75 -1.9375 -0.8749487996101379
v -4.75 -1.9375 1.1250011920928955
v -2.75 -1.9375 3.1254513263702393
v -4.75 -1.9375 3.1250011920928955
v -2.75 -1.9375 1.1252511739730835
v -4.75 -1.9375 3.1250011920928955
v -2.75 -1.9375 5.125001430511475
v -4.75 -1.9375 5.125001430511475
v -2.75 -1.9375 3.1254513263702393
v -2.75 -1.9375 3.1254513263702393
v -0.75 -1.9375 5.125001430511475
v -2.75 -1.9375 5.125001430511475
v -0.75 -1.9375 3.1254513263702393
v -2.75 -1.9375 1.1252511739730835
v -0.75 -1.9375 3.1254513263702393
v -2.75 -1.9375 3.1254513263702393
v -0.75 -1.9375 1.125251293182373
v -2.75 -1.9375 -0.8749487996101379
v -0.75 -1.9375 1.125251293182373
v -2.75 -1.9375 1.1252511739730835
v -0.75 -1.9375 -0.8749487400054932
v -2.75 -1.9375 -2.8749988079071045
v -0.75 -1.9375 -0.8749487400054932
v -2.75 -1.9375 -0.8749487996101379
v -0.75 -1.9375 -2.8749988079071045
v -0.75 -1.9375 -2.8749988079071045
v 1.25 -1.9375 -0.8747487664222717
v -0.75 -1.9375 -0.8749487400054932
v 1.25 -1.9375 -2.8749988079071045
v -0.75 -1.9375 -0.8749487400054932
v 1.25 -1.9375 1.1252511739730835
v -0.75 -1.9375 1.125251293182373
v 1.25 -1.9375 -0.8747487664222717
v -0.75 -1.9375 1.125251293182373
v 1.25 -1.9375 3.1254513263702393
v -0.75 -1.9375 3.1254513263702393
v 1.25 -1.9375 1.1252511739730835
v -0.75 -1.9375 3.1254513263702393
v 1.25 -1.9375 5.125001430511475
v -0.75 -1.9375 5.125001430511475
v 1.25 -1.9375 3.1254513263702393
v 1.25 -1.9375 3.1254513263702393
v 3.25 -1.9375 5.125001430511475
v 1.25 -1.9375 5.125001430511475
v 3.25 -1.9375 3.1250011920928955
v 1.25 -1.9375 1.1252511739730835
v 3.25 -1.9375 3.1250011920928955
v 1.25 -1.9375 3.1254513263702393
v 3.25 -1.9375 1.1250011920928955
v 1.25 -1.9375 -0.8747487664222717
v 3.25 -1.9375 1.1250011920928955
v 1.25 -1.9375 1.1252511739730835
v 3.25 -1.9375 -0.8749987483024597
v 1.25 -1.9375 -2.8749988079071045
v 3.25 -1.9375 -0.8749987483024597
v 1.25 -1.9375 -0.8747487664222717
v 3.25 -1.9375 -2.8749988079071045
v -4.375 0.0625 4.750001430511475
v -2.75 0.0625 3.124451160430908
v -4.75 0.0625 3.1250011920928955
v -2.75 0.0625 5.125001430511475
v -2.75 0.0625 5.125001430511475
v -0.75 0.0625 3.124451160430908
v -2.75 0.0625 3.124451160430908
v -0.75 0.0625 5.125001430511475
v -0.75 0.0625 5.125001430511475
v 1.25 0.0625 3.124451160430908
v -0.75 0.0625 3.124451160430908
v 1.25 0.0625 5.125001430511475
v 1.25 0.0625 5.125001430511475
v 3.25 0.0625 3.1250011920928955
v 1.25 0.0625 3.124451160430908
v 2.875 0.0625 4.750001430511475
v -4.75 0.0625 3.1250011920928955
v -2.75 0.0625 1.124651312828064
v -4.75 0.0625 1.1250011920928955
v -2.75 0.0625 3.124451160430908
v -4.75 0.0625 1.1250011920928955
v -2.75 0.0625 -0.8751487135887146
v -4.75 0.0625 -0.8749987483024597
v -2.75 0.0625 1.124651312828064
v -4.75 0.0625 -0.8749987483024597
v -2.75 0.0625 -2.8749988079071045
v -4.375 0.0625 -2.4999988079071045
v -2.75 0.0625 -0.8751487135887146
v -2.75 0.0625 -0.8751487135887146
v -0.75 0.0625 -2.8749988079071045
v -2.75 0.0625 -2.8749988079071045
v -0.75 0.0625 -0.8751487731933594
v -0.75 0.0625 -0.8751487731933594
v 1.25 0.0625 -2.8749988079071045
v -0.75 0.0625 -2.8749988079071045
v 1.25 0.0625 -0.8751487731933594
v 1.25 0.0625 -0.8751487731933594
v 2.875 0.0625 -2.4374988079071045
v 1.25 0.0625 -2.8749988079071045
v 3.25 0.0625 -0.8749987483024597
v 1.25 0.0625 3.124451160430908
v 3.25 0.0625 1.1250011920928955
v 1.25 0.0625 1.124651312828064
v 3.25 0.0625 3.1250011920928955
v -4 2 -1.9999988079071045
v -4 4 0.0000012268066029719193
v -4 4 -1.9999988079071045
v -4 2 0.0000012268066029719193
v -4 2 0.0000012268066029719193
v -4 4 2.0000011920928955
v -4 4 0.0000012268066029719193
v -4 2 2.0000011920928955
v -4 2 2.0000011920928955
v -4 4 4.000001430511475
v -4 4 2.0000011920928955
v -4 2 4.000001430511475
v -4 0 1.9998509883880615
v -4 2 4.000001430511475
v -4 2 2.0000011920928955
v -4 0.375 3.625251054763794
v -4 0 0.00005122680522617884
v -4 2 2.0000011920928955
v -4 2 0.0000012268066029719193
v -4 0 1.9998509883880615
v -4 0.375 -1.6249492168426514
v -4 2 0.0000012268066029719193
v -4 2 -1.9999988079071045
v -4 0 0.00005122680522617884
v -4 4 -1.9999988079071045
v -3.8125 5.8125 0.0000012268066029719193
v -3.8125 5.625 -1.8124988079071045
v -4 4 0.0000012268066029719193
v -4 4 0.0000012268066029719193
v -3.8125 5.8125 2.0000011920928955
v -3.8125 5.8125 0.0000012268066029719193
v -4 4 2.0000011920928955
v -4 4 2.0000011920928955
v -3.8125 5.625 4.000001430511475
v -3.8125 5.8125 2.0000011920928955
v -4 4 4.000001430511475
v -4 0.375 3.625251054763794
v -2 2 4.000001430511475
v -4 2 4.000001430511475
v -2 0.375 3.625251054763794
v -2 0.375 3.625251054763794
v 0 2 4.000001430511475
v -2 2 4.000001430511475
v 0 0.375 3.625251054763794
v 0 0.375 3.625251054763794
v 2 2 4.000001430511475
v 0 2 4.000001430511475
v 2 0.375 3.625251054763794
v 0 2 4.000001430511475
v 2 4 4.000001430511475
v 0 4 4.000001430511475
v 2 2 4.000001430511475
v -2 2 4.000001430511475
v 0 4 4.000001430511475
v -2 4 4.000001430511475
v 0 2 4.000001430511475
v -4 2 4.000001430511475
v -2 4 4.000001430511475
v -4 4 4.000001430511475
v -2 2 4.000001430511475
v -4 4 4.000001430511475
v -2 5.8125 4.000001430511475
v -3.8125 5.625 4.000001430511475
v -2 4 4.000001430511475
v -2 4 4.000001430511475
v 0 5.8125 4.000001430511475
v -2 5.8125 4.000001430511475
v 0 4 4.000001430511475
v 0 4 4.000001430511475
v 1.8125 5.625 4.000001430511475
v 0 5.8125 4.000001430511475
v 2 4 4.000001430511475
v 2 0.375 3.625251054763794
v 2 2 2.0000011920928955
v 2 2 4.000001430511475
v 2 0 2.000251054763794
v 2 0 2.000251054763794
v 2 2 0.0000012268066029719193
v 2 2 2.0000011920928955
v 2 0 -0.00014850005391053855
v 2 0 -0.00014850005391053855
v 2 2 -1.9999988079071045
v 2 2 0.0000012268066029719193
v 2 0.375 -1.6249492168426514
v 2 2 0.0000012268066029719193
v 2 4 -1.9999988079071045
v 2 4 0.0000012268066029719193
v 2 2 -1.9999988079071045
v 2 2 2.0000011920928955
v 2 4 0.0000012268066029719193
v 2 4 2.0000011920928955
v 2 2 0.0000012268066029719193
v 2 2 4.000001430511475
v 2 4 2.0000011920928955
v 2 4 4.000001430511475
v 2 2 2.0000011920928955
v 2 4 4.000001430511475
v 1.8125 5.8125 2.0000011920928955
v 1.8125 5.625 4.000001430511475
v 2 4 2.0000011920928955
v 2 4 2.0000011920928955
v 1.8125 5.8125 0.0000012268066029719193
v 1.8125 5.8125 2.0000011920928955
v 2 4 0.0000012268066029719193
v 2 4 0.0000012268066029719193
v 1.8125 5.625 -1.8124988079071045
v 1.8125 5.8125 0.0000012268066029719193
v 2 4 -1.9999988079071045
v 1.25 0.0625 1.124651312828064
v 3.25 0.0625 -0.8749987483024597
v 1.25 0.0625 -0.8751487731933594
v 3.25 0.0625 1.1250011920928955
v 2 0.375 -1.6249492168426514
v 0 2 -1.9999988079071045
v 2 2 -1.9999988079071045
v 0 0.375 -1.6249492168426514
v 0 0.375 -1.6249492168426514
v -2 2 -1.9999988079071045
v 0 2 -1.9999988079071045
v -2 0.375 -1.6249492168426514
v -2 0.375 -1.6249492168426514
v -4 2 -1.9999988079071045
v -2 2 -1.9999988079071045
v -4 0.375 -1.6249492168426514
v -2 2 -1.9999988079071045
v -4 4 -1.9999988079071045
v -2 4 -1.9999988079071045
v -4 2 -1.9999988079071045
v 0 2 -1.9999988079071045
v -2 4 -1.9999988079071045
v 0 4 -1.9999988079071045
v -2 2 -1.9999988079071045
v 2 2 -1.9999988079071045
v 0 4 -1.9999988079071045
v 2 4 -1.9999988079071045
v 0 2 -1.9999988079071045
v 2 4 -1.9999988079071045
v 0 5.8125 -1.8124988079071045
v 1.8125 5.625 -1.8124988079071045
v 0 4 -1.9999988079071045
v 0 4 -1.9999988079071045
v -2 5.8125 -1.8124988079071045
v 0 5.8125 -1.8124988079071045
v -2 4 -1.9999988079071045
v -2 4 -1.9999988079071045
v -3.8125 5.625 -1.8124988079071045
v -2 5.8125 -1.8124988079071045
v -4 4 -1.9999988079071045
v 0 6 0.0002509551995899528
v 1.8125 5.625 -1.8124988079071045
v 0 5.8125 -1.8124988079071045
v 1.8125 5.8125 0.0000012268066029719193
v 0 6 2.0000510215759277
v 1.8125 5.8125 0.0000012268066029719193
v 0 6 0.0002509551995899528
v 1.8125 5.8125 2.0000011920928955
v 0 5.8125 4.000001430511475
v 1.8125 5.8125 2.0000011920928955
v 0 6 2.0000510215759277
v 1.8125 5.625 4.000001430511475
v -2 5.8125 4.000001430511475
v 0 6 2.0000510215759277
v -2 6 2.000251531600952
v 0 5.8125 4.000001430511475
v -2 6 2.000251531600952
v 0 6 0.0002509551995899528
v -2 6 0.00045149840298108757
v 0 6 2.0000510215759277
v -3.8125 5.8125 0.0000012268066029719193
v -2 5.8125 -1.8124988079071045
v -3.8125 5.625 -1.8124988079071045
v -2 6 0.00045149840298108757
v -3.8125 5.8125 2.0000011920928955
v -2 6 0.00045149840298108757
v -3.8125 5.8125 0.0000012268066029719193
v -2 6 2.000251531600952
v -3.8125 5.625 4.000001430511475
v -2 6 2.000251531600952
v -3.8125 5.8125 2.0000011920928955
v -2 5.8125 4.000001430511475
v -2 6 0.00045149840298108757
v 0 5.8125 -1.8124988079071045
v -2 5.8125 -1.8124988079071045
v 0 6 0.0002509551995899528
v -4 0.375 -1.6249492168426514
v -2 0 0.0000016357421372958925
v -4 0 0.00005122680522617884
v -2 0.375 -1.6249492168426514
v -2 0.375 -1.6249492168426514
v 0 0 0
v -2 0 0.0000016357421372958925
v 0 0.375 -1.6249492168426514
v 0 0.375 -1.6249492168426514
v 2 0 -0.00014850005391053855
v 0 0 0
v 2 0.375 -1.6249492168426514
v -0.75 0.0625 1.1246511936187744
v 1.25 0.0625 -0.8751487731933594
v -0.75 0.0625 -0.8751487731933594
v 1.25 0.0625 1.124651312828064
v -2.75 0.0625 1.124651312828064
v -0.75 0.0625 -0.8751487731933594
v -2.75 0.0625 -0.8751487135887146
v -0.75 0.0625 1.1246511936187744
v -2.75 0.0625 3.124451160430908
v -0.75 0.0625 1.1246511936187744
v -2.75 0.0625 1.124651312828064
v -0.75 0.0625 3.124451160430908
v -0.75 0.0625 3.124451160430908
v 1.25 0.0625 1.124651312828064
v -0.75 0.0625 1.1246511936187744
v 1.25 0.0625 3.124451160430908
v -2 0 2.0000016689300537
v 0 0.375 3.625251054763794
v -2 0.375 3.625251054763794
v 0 0 2.0000009536743164
v 0 0 2.0000009536743164
v 2 0.375 3.625251054763794
v 0 0.375 3.625251054763794
v 2 0 2.000251054763794
v -4 0 1.9998509883880615
v -2 0.375 3.625251054763794
v -4 0.375 3.625251054763794
v -2 0 2.0000014305114746
vt 0 1
vt 1 0.5
vt 1 1
vt 0 0.5
vt 0.5 0
vt 0.5 0.5
vt 1 0
vt 0.5 1
vn 0 -1 0
vn -0.9743912 0 0.22485948
vn -0.98287219 0.18428854 0
vn -1 0 0
vn -0.95065415 0.21938173 -0.21938172
vn 0.22485951 0 0.9743912
vn 0 0.18428854 0.98287219
vn 0 0 1
vn -0.21938173 0.21938173 0.95065415
vn 0.95065416 0.21938172 0.2193817
vn 1 0 0
vn 0.9723873 0 -0.23337294
vn 0.98287219 0.18428854 0
vn 0.2516098 0.2516098 -0.9345507
vn 0 0 -1
vn -0.22485951 0 -0.9743912
vn 0 0.18428854 -0.98287219
vn 0 1 0
vn -0.99317885 0.11598196 -0.01199813
vn -0.99469179 0.10289915 0
vn -0.99464551 0.10289436 0.00964635
vn -0.99340894 0.11462411 0
vn 0 -0.22471739 0.97442398
vn 0.99335158 0.11461749 0.01074539
vn 0.99469179 0.10289915 0
vn 0.99463544 0.10289332 -0.01064414
vn 0.99340894 0.11462411 0
vn 0 -0.22488774 -0.97438468
vn 0.01199813 0.11598196 -0.99317885
vn 0 0.10289915 -0.99469179
vn -0.01064414 0.10289332 -0.99463544
vn 0 0.11462411 -0.99340894
vn 0.10235883 0.98946866 -0.10234472
vn 0.10234472 0.98946866 -0.10235882
vn 0.10289915 0.99469179 0
vn 0.10245715 0.99039441 0.09285178
vn 0.10245464 0.99039488 0.09284951
vn 0.00000936 0.99563314 0.09335228
vn 0 0.99563401 0.093343
vn -0.10235868 0.98946723 -0.10235868
vn -0.10233379 0.98947238 -0.10233379
vn -0.10289915 0.99469179 0
vn -0.10246733 0.99039358 0.09284939
vn -0.10245453 0.99039381 0.09286103
vn 0 0.99469441 -0.10287386
vn -0.00001032 0.99469324 -0.10288512
vn -0.00000558 -0.97439121 -0.22485945
vn 0 -0.97438971 -0.22486596
vn -1.8e-7 -0.97438971 -0.22486596
vn 0 -0.97438966 -0.22486618
vn -0.0000167 -0.97438966 -0.22486618
vn 0 -0.97438515 -0.22488569
vn 0 -0.97439875 0.22482675
vn 8e-8 -0.97439878 0.22482665
vn 0 -0.97439878 0.22482665
vn -0.00002812 -0.9743912 0.22485951
vn 0 -0.97440332 0.22480696
vn -0.00001691 -0.97439876 0.22482672
g hedgeA
usemtl 2
f 1/1/1 3/2/1 2/3/1
f 1/1/1 4/4/1 3/2/1
f 5/5/2 6/2/2 7/6/2
f 5/5/3 8/7/3 6/2/3
f 9/5/4 10/2/4 11/6/4
f 9/5/4 12/7/4 10/2/4
f 13/5/4 14/2/4 15/6/4
f 13/5/4 16/7/4 14/2/4
f 17/5/5 18/2/5 19/6/5
f 17/5/4 20/7/4 18/2/4
f 21/5/6 22/2/6 23/6/6
f 21/5/7 24/7/7 22/2/7
f 25/5/8 26/2/8 27/6/8
f 25/5/8 28/7/8 26/2/8
f 29/5/8 30/2/8 31/6/8
f 29/5/8 32/7/8 30/2/8
f 33/5/9 34/2/9 35/6/9
f 33/5/8 36/7/8 34/2/8
f 37/5/10 38/2/10 39/6/10
f 37/5/11 40/7/11 38/2/11
f 41/5/11 42/2/11 43/6/11
f 41/5/11 44/7/11 42/2/11
f 45/5/11 46/2/11 47/6/11
f 45/5/11 48/7/11 46/2/11
f 49/5/12 50/2/12 51/6/12
f 49/5/13 52/7/13 50/2/13
f 53/5/14 54/2/14 55/6/14
f 53/5/15 56/7/15 54/2/15
f 57/5/15 58/2/15 59/6/15
f 57/5/15 60/7/15 58/2/15
f 61/5/15 62/2/15 63/6/15
f 61/5/15 64/7/15 62/2/15
f 65/5/16 66/2/16 67/6/16
f 65/5/17 68/7/17 66/2/17
f 69/5/1 70/2/1 71/6/1
f 69/5/1 72/7/1 70/2/1
f 73/5/1 74/2/1 75/6/1
f 73/5/1 76/7/1 74/2/1
f 77/5/1 78/2/1 79/6/1
f 77/5/1 80/7/1 78/2/1
f 81/5/1 82/2/1 83/6/1
f 81/5/1 84/7/1 82/2/1
f 85/5/1 86/2/1 87/6/1
f 85/5/1 88/7/1 86/2/1
f 89/5/1 90/2/1 91/6/1
f 89/5/1 92/7/1 90/2/1
f 93/5/1 94/2/1 95/6/1
f 93/5/1 96/7/1 94/2/1
f 97/5/1 98/2/1 99/6/1
f 97/5/1 100/7/1 98/2/1
f 101/5/1 102/2/1 103/6/1
f 101/5/1 104/7/1 102/2/1
f 105/5/1 106/2/1 107/6/1
f 105/5/1 108/7/1 106/2/1
f 109/5/1 110/2/1 111/6/1
f 109/5/1 112/7/1 110/2/1
f 113/5/1 114/2/1 115/6/1
f 113/5/1 116/7/1 114/2/1
f 117/5/1 118/2/1 119/6/1
f 117/5/1 120/7/1 118/2/1
f 121/5/1 122/2/1 123/6/1
f 121/5/1 124/7/1 122/2/1
f 125/5/1 126/2/1 127/6/1
f 125/5/1 128/7/1 126/2/1
f 129/5/1 130/2/1 131/6/1
f 129/5/1 132/7/1 130/2/1
f 133/5/18 134/2/18 135/6/18
f 133/5/18 136/7/18 134/2/18
f 137/5/18 138/2/18 139/6/18
f 137/5/18 140/7/18 138/2/18
f 141/5/18 142/2/18 143/6/18
f 141/5/18 144/7/18 142/2/18
f 145/5/18 146/2/18 147/6/18
f 145/5/18 148/7/18 146/2/18
f 149/5/18 150/2/18 151/6/18
f 149/5/18 152/7/18 150/2/18
f 153/5/18 154/2/18 155/6/18
f 153/5/18 156/7/18 154/2/18
f 157/5/18 158/2/18 159/6/18
f 157/5/18 160/7/18 158/2/18
f 161/5/18 162/2/18 163/6/18
f 161/5/18 164/7/18 162/2/18
f 165/5/18 166/2/18 167/6/18
f 165/5/18 168/7/18 166/2/18
f 169/5/18 170/2/18 171/6/18
f 169/5/18 172/7/18 170/2/18
f 173/5/18 174/2/18 175/6/18
f 173/5/18 176/7/18 174/2/18
f 177/4/4 178/8/4 179/1/4
f 177/4/4 180/6/4 178/8/4
f 181/4/4 182/8/4 183/1/4
f 181/4/4 184/6/4 182/8/4
f 185/4/4 186/8/4 187/1/4
f 185/4/4 188/6/4 186/8/4
f 189/4/4 190/8/4 191/1/4
f 189/4/4 192/6/4 190/8/4
f 193/4/4 194/8/4 195/1/4
f 193/4/4 196/6/4 194/8/4
f 197/4/4 198/8/4 199/1/4
f 197/4/4 200/6/4 198/8/4
f 201/4/19 202/8/19 203/1/19
f 201/4/20 204/6/20 202/8/20
f 205/4/20 206/8/20 207/1/20
f 205/4/20 208/6/20 206/8/20
f 209/4/21 210/8/21 211/1/21
f 209/4/22 212/6/22 210/8/22
f 213/4/23 214/8/23 215/1/23
f 213/4/23 216/6/23 214/8/23
f 217/4/23 218/8/23 219/1/23
f 217/4/23 220/6/23 218/8/23
f 221/4/23 222/8/23 223/1/23
f 221/4/23 224/6/23 222/8/23
f 225/4/8 226/8/8 227/1/8
f 225/4/8 228/6/8 226/8/8
f 229/4/8 230/8/8 231/1/8
f 229/4/8 232/6/8 230/8/8
f 233/4/8 234/8/8 235/1/8
f 233/4/8 236/6/8 234/8/8
f 237/4/8 238/8/8 239/1/8
f 237/4/8 240/6/8 238/8/8
f 241/4/8 242/8/8 243/1/8
f 241/4/8 244/6/8 242/8/8
f 245/4/8 246/8/8 247/1/8
f 245/4/8 248/6/8 246/8/8
f 249/4/11 250/8/11 251/1/11
f 249/4/11 252/6/11 250/8/11
f 253/4/11 254/8/11 255/1/11
f 253/4/11 256/6/11 254/8/11
f 257/4/11 258/8/11 259/1/11
f 257/4/11 260/6/11 258/8/11
f 261/4/11 262/8/11 263/1/11
f 261/4/11 264/6/11 262/8/11
f 265/4/11 266/8/11 267/1/11
f 265/4/11 268/6/11 266/8/11
f 269/4/11 270/8/11 271/1/11
f 269/4/11 272/6/11 270/8/11
f 273/4/24 274/8/24 275/1/24
f 273/4/25 276/6/25 274/8/25
f 277/4/25 278/8/25 279/1/25
f 277/4/25 280/6/25 278/8/25
f 281/4/26 282/8/26 283/1/26
f 281/4/27 284/6/27 282/8/27
f 285/5/18 286/2/18 287/6/18
f 285/5/18 288/7/18 286/2/18
f 289/4/28 290/8/28 291/1/28
f 289/4/28 292/6/28 290/8/28
f 293/4/28 294/8/28 295/1/28
f 293/4/28 296/6/28 294/8/28
f 297/4/28 298/8/28 299/1/28
f 297/4/28 300/6/28 298/8/28
f 301/4/15 302/8/15 303/1/15
f 301/4/15 304/6/15 302/8/15
f 305/4/15 306/8/15 307/1/15
f 305/4/15 308/6/15 306/8/15
f 309/4/15 310/8/15 311/1/15
f 309/4/15 312/6/15 310/8/15
f 313/4/29 314/8/29 315/1/29
f 313/4/30 316/6/30 314/8/30
f 317/4/30 318/8/30 319/1/30
f 317/4/30 320/6/30 318/8/30
f 321/4/31 322/8/31 323/1/31
f 321/4/32 324/6/32 322/8/32
f 325/4/33 326/8/33 327/1/33
f 325/4/34 328/6/34 326/8/34
f 329/4/35 330/8/35 331/1/35
f 329/4/35 332/6/35 330/8/35
f 333/4/36 334/8/36 335/1/36
f 333/4/37 336/6/37 334/8/37
f 337/4/38 338/8/38 339/1/38
f 337/4/39 340/6/39 338/8/39
f 341/4/18 342/8/18 343/1/18
f 341/4/18 344/6/18 342/8/18
f 345/4/40 346/8/40 347/1/40
f 345/4/41 348/6/41 346/8/41
f 349/4/42 350/8/42 351/1/42
f 349/4/42 352/6/42 350/8/42
f 353/4/43 354/8/43 355/1/43
f 353/4/44 356/6/44 354/8/44
f 357/4/45 358/8/45 359/1/45
f 357/4/46 360/6/46 358/8/46
f 361/4/47 362/8/47 363/1/47
f 361/4/48 364/6/48 362/8/48
f 365/4/49 366/8/49 367/1/49
f 365/4/50 368/6/50 366/8/50
f 369/4/51 370/8/51 371/1/51
f 369/4/52 372/6/52 370/8/52
f 373/5/18 374/2/18 375/6/18
f 373/5/18 376/7/18 374/2/18
f 377/5/18 378/2/18 379/6/18
f 377/5/18 380/7/18 378/2/18
f 381/5/18 382/2/18 383/6/18
f 381/5/18 384/7/18 382/2/18
f 385/5/18 386/2/18 387/6/18
f 385/5/18 388/7/18 386/2/18
f 389/4/53 390/8/53 391/1/53
f 389/4/54 392/6/54 390/8/54
f 393/4/55 394/8/55 395/1/55
f 393/4/56 396/6/56 394/8/56
f 397/4/57 398/8/57 399/1/57
f 397/4/58 400/6/58 398/8/58
