mtllib material.mtl
o Default
v -1.25 -0.0625 -3.1251485347747803
v -1.25 0.3125 -1.4997481107711792
v 0.75 0.3125 -1.4997481107711792
v 0.75 -0.0625 -3.124999761581421
v 2.75 -0.0625 -3.124999761581421
v 4.75 0.3125 -1.4997481107711792
v 2.75 0.3125 -1.4997481107711792
v 4.75 -0.0625 -3.1247479915618896
v 0.75 -0.0625 -3.124999761581421
v 2.75 0.3125 -1.4997481107711792
v 0.75 0.3125 -1.4997481107711792
v 2.75 -0.0625 -3.124999761581421
v 2 0 -2.00054931640625
v 4 0 -4.0003509521484375
v 2 0 -4.0003509521484375
v 4 0 -2.00054931640625
v 0 0 -2.00054931640625
v 2 0 -4.0003509521484375
v 0 0 -4.0003509521484375
v 2 0 -2.00054931640625
v 0 0 -4.0003509521484375
v 2 0 -6.000148773193359
v 0 0 -6.000148773193359
v 2 0 -4.0003509521484375
v 2 0 -4.0003509521484375
v 4 0 -6.000148773193359
v 2 0 -6.000148773193359
v 4 0 -4.0003509521484375
v 2.75 0.3125 -6.749950885772705
v 4.75 -0.0625 -5.125148296356201
v 2.75 -0.0625 -5.124999523162842
v 4.75 0.3125 -6.749950885772705
v 0.75 0.3125 -6.749950885772705
v 2.75 -0.0625 -5.124999523162842
v 0.75 -0.0625 -5.124999523162842
v 2.75 0.3125 -6.749950885772705
v -1.25 0.3125 -6.749950885772705
v 0.75 -0.0625 -5.124999523162842
v -1.25 -0.0625 -5.124949932098389
v 0.75 0.3125 -6.749950885772705
v 0.75 5.9375 -5.124549865722656
v 2.75 5.75 -6.9375
v 0.75 5.75 -6.9375
v 2.75 5.9375 -5.124752044677734
v -1.0625 5.5625 -1.1249996423721313
v 0.75 5.9375 -3.1247477531433105
v -1.0625 5.75 -3.124999523162842
v 0.75 5.75 -1.1249996423721313
v -1.0625 5.75 -3.124999523162842
v 0.75 5.9375 -5.124549865722656
v -1.0625 5.75 -5.125
v 0.75 5.9375 -3.1247477531433105
v -1.0625 5.75 -5.125
v 0.75 5.75 -6.9375
v -1.0625 5.5625 -6.9375
v 0.75 5.9375 -5.124549865722656
v 0.75 5.9375 -3.1247477531433105
v 2.75 5.9375 -5.124752044677734
v 0.75 5.9375 -5.124549865722656
v 2.75 5.9375 -3.1249501705169678
v 0.75 5.75 -1.1249996423721313
v 2.75 5.9375 -3.1249501705169678
v 0.75 5.9375 -3.1247477531433105
v 2.75 5.75 -1.1249996423721313
v 2.75 5.75 -1.1249996423721313
v 4.5625 5.75 -3.124999523162842
v 2.75 5.9375 -3.1249501705169678
v 4.5625 5.5625 -1.1249996423721313
v 2.75 5.9375 -3.1249501705169678
v 4.5625 5.75 -5.125
v 2.75 5.9375 -5.124752044677734
v 4.5625 5.75 -3.124999523162842
v 2.75 5.9375 -5.124752044677734
v 4.5625 5.5625 -6.9375
v 2.75 5.75 -6.9375
v 4.5625 5.75 -5.125
v 0.75 3.9375 -7.125
v -1.0625 5.5625 -6.9375
v 0.75 5.75 -6.9375
v -1.25 3.9375 -7.125
v 2.75 3.9375 -7.125
v 0.75 5.75 -6.9375
v 2.75 5.75 -6.9375
v 0.75 3.9375 -7.125
v 4.75 3.9375 -7.125
v 2.75 5.75 -6.9375
v 4.5625 5.5625 -6.9375
v 2.75 3.9375 -7.125
v 4.75 1.9375 -7.125
v 2.75 3.9375 -7.125
v 4.75 3.9375 -7.125
v 2.75 1.9375 -7.125
v 2.75 1.9375 -7.125
v 0.75 3.9375 -7.125
v 2.75 3.9375 -7.125
v 0.75 1.9375 -7.125
v 0.75 1.9375 -7.125
v -1.25 3.9375 -7.125
v 0.75 3.9375 -7.125
v -1.25 1.9375 -7.125
v 0.75 0.3125 -6.749950885772705
v -1.25 1.9375 -7.125
v 0.75 1.9375 -7.125
v -1.25 0.3125 -6.749950885772705
v 2.75 0.3125 -6.749950885772705
v 0.75 1.9375 -7.125
v 2.75 1.9375 -7.125
v 0.75 0.3125 -6.749950885772705
v 4.75 0.3125 -6.749950885772705
v 2.75 1.9375 -7.125
v 4.75 1.9375 -7.125
v 2.75 0.3125 -6.749950885772705
v 4 0 -4.0003509521484375
v 6 0 -6
v 4 0 -6.000148773193359
v 6 0 -4
v 4.75 3.9375 -5.125
v 4.5625 5.5625 -6.9375
v 4.5625 5.75 -5.125
v 4.75 3.9375 -7.125
v 4.75 3.9375 -3.125
v 4.5625 5.75 -5.125
v 4.5625 5.75 -3.124999523162842
v 4.75 3.9375 -5.125
v 4.75 3.9375 -1.125
v 4.5625 5.75 -3.124999523162842
v 4.5625 5.5625 -1.1249996423721313
v 4.75 3.9375 -3.125
v 4.75 1.9375 -1.125
v 4.75 3.9375 -3.125
v 4.75 3.9375 -1.125
v 4.75 1.9375 -3.125
v 4.75 1.9375 -3.125
v 4.75 3.9375 -5.125
v 4.75 3.9375 -3.125
v 4.75 1.9375 -5.125
v 4.75 1.9375 -5.125
v 4.75 3.9375 -7.125
v 4.75 3.9375 -5.125
v 4.75 1.9375 -7.125
v 4.75 -0.0625 -5.125148296356201
v 4.75 1.9375 -7.125
v 4.75 1.9375 -5.125
v 4.75 0.3125 -6.749950885772705
v 4.75 -0.0625 -3.1247479915618896
v 4.75 1.9375 -5.125
v 4.75 1.9375 -3.125
v 4.75 -0.0625 -5.125148296356201
v 4.75 0.3125 -1.4997481107711792
v 4.75 1.9375 -3.125
v 4.75 1.9375 -1.125
v 4.75 -0.0625 -3.1247479915618896
v 2.75 3.9375 -1.125
v 4.5625 5.5625 -1.1249996423721313
v 2.75 5.75 -1.1249996423721313
v 4.75 3.9375 -1.125
v 0.75 3.9375 -1.125
v 2.75 5.75 -1.1249996423721313
v 0.75 5.75 -1.1249996423721313
v 2.75 3.9375 -1.125
v -1.25 3.9375 -1.125
v 0.75 5.75 -1.1249996423721313
v -1.0625 5.5625 -1.1249996423721313
v 0.75 3.9375 -1.125
v -1.25 1.9375 -1.125
v 0.75 3.9375 -1.125
v -1.25 3.9375 -1.125
v 0.75 1.9375 -1.125
v 0.75 1.9375 -1.125
v 2.75 3.9375 -1.125
v 0.75 3.9375 -1.125
v 2.75 1.9375 -1.125
v 2.75 1.9375 -1.125
v 4.75 3.9375 -1.125
v 2.75 3.9375 -1.125
v 4.75 1.9375 -1.125
v 2.75 0.3125 -1.4997481107711792
v 4.75 1.9375 -1.125
v 2.75 1.9375 -1.125
v 4.75 0.3125 -1.4997481107711792
v 0.75 0.3125 -1.4997481107711792
v 2.75 1.9375 -1.125
v 0.75 1.9375 -1.125
v 2.75 0.3125 -1.4997481107711792
v -1.25 0.3125 -1.4997481107711792
v 0.75 1.9375 -1.125
v -1.25 1.9375 -1.125
v 0.75 0.3125 -1.4997481107711792
v -1.25 3.9375 -3.125
v -1.0625 5.5625 -1.1249996423721313
v -1.0625 5.75 -3.124999523162842
v -1.25 3.9375 -1.125
v -1.25 3.9375 -5.125
v -1.0625 5.75 -3.124999523162842
v -1.0625 5.75 -5.125
v -1.25 3.9375 -3.125
v -1.25 3.9375 -7.125
v -1.0625 5.75 -5.125
v -1.0625 5.5625 -6.9375
v -1.25 3.9375 -5.125
v -1.25 0.3125 -6.749950885772705
v -1.25 1.9375 -5.125
v -1.25 1.9375 -7.125
v -1.25 -0.0625 -5.124949932098389
v -1.25 -0.0625 -5.124949932098389
v -1.25 1.9375 -3.125
v -1.25 1.9375 -5.125
v -1.25 -0.0625 -3.1251485347747803
v -1.25 -0.0625 -3.1251485347747803
v -1.25 1.9375 -1.125
v -1.25 1.9375 -3.125
v -1.25 0.3125 -1.4997481107711792
v -1.25 1.9375 -3.125
v -1.25 3.9375 -1.125
v -1.25 3.9375 -3.125
v -1.25 1.9375 -1.125
v -1.25 1.9375 -5.125
v -1.25 3.9375 -3.125
v -1.25 3.9375 -5.125
v -1.25 1.9375 -3.125
v -1.25 1.9375 -7.125
v -1.25 3.9375 -5.125
v -1.25 3.9375 -7.125
v -1.25 1.9375 -5.125
v 4 0 -2.00054931640625
v 6 0 -4
v 4 0 -4.0003509521484375
v 6 0 -2.00054931640625
v 4 0 -6.000148773193359
v 5.625 0 -7.5625
v 4 0 -8
v 6 0 -6
v 2 0 -6.000148773193359
v 4 0 -8
v 2 0 -8
v 4 0 -6.000148773193359
v 0 0 -6.000148773193359
v 2 0 -8
v 0 0 -8
v 2 0 -6.000148773193359
v -2 0 -6
v 0 0 -8
v -1.625 0 -7.625
v 0 0 -6.000148773193359
v -2 0 -4
v 0 0 -6.000148773193359
v -2 0 -6
v 0 0 -4.0003509521484375
v -2 0 -2.00054931640625
v 0 0 -4.0003509521484375
v -2 0 -4
v 0 0 -2.00054931640625
v 4 0 -0.0007514901226386428
v 6 0 -2.00054931640625
v 4 0 -2.00054931640625
v 5.625 0 -0.3757514953613281
v 2 0 -0.0007514901226386428
v 4 0 -2.00054931640625
v 2 0 -2.00054931640625
v 4 0 -0.0007514901226386428
v 0 0 -0.0007514901226386428
v 2 0 -2.00054931640625
v 0 0 -2.00054931640625
v 2 0 -0.0007514901226386428
v -1.625 0 -0.3757514953613281
v 0 0 -2.00054931640625
v -2 0 -2.00054931640625
v 0 0 -0.0007514901226386428
v 4 -2 -8
v 6 -2 -6
v 4 -2 -5.999748229980469
v 6 -2 -8
v 4 -2 -5.999748229980469
v 6 -2 -4
v 4 -2 -3.9997482299804688
v 6 -2 -6
v 4 -2 -3.9997482299804688
v 6 -2 -2
v 4 -2 -1.9995498657226562
v 6 -2 -4
v 4 -2 -1.9995498657226562
v 6 -2 0.0006484502810053527
v 4 -2 0.0006484502810053527
v 6 -2 -2
v 2 -2 -1.9995498657226562
v 4 -2 0.0006484502810053527
v 2 -2 0.0006484502810053527
v 4 -2 -1.9995498657226562
v 2 -2 -3.9997482299804688
v 4 -2 -1.9995498657226562
v 2 -2 -1.9995498657226562
v 4 -2 -3.9997482299804688
v 2 -2 -5.999950408935547
v 4 -2 -3.9997482299804688
v 2 -2 -3.9997482299804688
v 4 -2 -5.999748229980469
v 2 -2 -8
v 4 -2 -5.999748229980469
v 2 -2 -5.999950408935547
v 4 -2 -8
v 0 -2 -8
v 2 -2 -5.999950408935547
v 0 -2 -5.999950408935547
v 2 -2 -8
v 0 -2 -5.999950408935547
v 2 -2 -3.9997482299804688
v 0 -2 -3.9997482299804688
v 2 -2 -5.999950408935547
v 0 -2 -3.9997482299804688
v 2 -2 -1.9995498657226562
v 0 -2 -1.9995498657226562
v 2 -2 -3.9997482299804688
v 0 -2 -1.9995498657226562
v 2 -2 0.0006484502810053527
v 0 -2 0.0006484502810053527
v 2 -2 -1.9995498657226562
v -2 -2 -1.9993515014648438
v 0 -2 0.0006484502810053527
v -2 -2 0.0006484502810053527
v 0 -2 -1.9995498657226562
v -2 -2 -4
v 0 -2 -1.9995498657226562
v -2 -2 -1.9993515014648438
v 0 -2 -3.9997482299804688
v -2 -2 -6
v 0 -2 -3.9997482299804688
v -2 -2 -4
v 0 -2 -5.999950408935547
v -2 -2 -8
v 0 -2 -5.999950408935547
v -2 -2 -6
v 0 -2 -8
v 0 -2 -8
v -1.625 0 -7.625
v 0 0 -8
v -2 -2 -8
v 2 -2 -8
v 0 0 -8
v 2 0 -8
v 0 -2 -8
v 4 -2 -8
v 2 0 -8
v 4 0 -8
v 2 -2 -8
v 6 -2 -8
v 4 0 -8
v 5.625 0 -7.5625
v 4 -2 -8
v 6 -2 -6
v 5.625 0 -7.5625
v 6 0 -6
v 6 -2 -8
v 6 -2 -4
v 6 0 -6
v 6 0 -4
v 6 -2 -6
v 6 -2 -2
v 6 0 -4
v 6 0 -2.00054931640625
v 6 -2 -4
v 6 -2 0.0006484502810053527
v 6 0 -2.00054931640625
v 5.625 0 -0.3757514953613281
v 6 -2 -2
v -2 -2 0.0006484502810053527
v 0 0 -0.0007514901226386428
v -1.625 0 -0.3757514953613281
v 0 -2 0.0006484502810053527
v 0 -2 0.0006484502810053527
v 2 0 -0.0007514901226386428
v 0 0 -0.0007514901226386428
v 2 -2 0.0006484502810053527
v 2 -2 0.0006484502810053527
v 4 0 -0.0007514901226386428
v 2 0 -0.0007514901226386428
v 4 -2 0.0006484502810053527
v 4 -2 0.0006484502810053527
v 5.625 0 -0.3757514953613281
v 4 0 -0.0007514901226386428
v 6 -2 0.0006484502810053527
v -2 -2 -8
v -2 0 -6
v -1.625 0 -7.625
v -2 -2 -6
v -2 -2 -6
v -2 0 -4
v -2 0 -6
v -2 -2 -4
v -2 -2 -4
v -2 0 -2.00054931640625
v -2 0 -4
v -2 -2 -1.9993515014648438
v -2 -2 -1.9993515014648438
v -1.625 0 -0.3757514953613281
v -2 0 -2.00054931640625
v -2 -2 0.0006484502810053527
v -1.25 -0.0625 -5.124949932098389
v 0.75 -0.0625 -3.124999761581421
v -1.25 -0.0625 -3.1251485347747803
v 0.75 -0.0625 -5.124999523162842
vt 0 0
vt 0.5 0.5
vt 0 0.5
vt 0.5 0
vt 1 0.5
vt 1 0
vt 0 1
vt 1 1
vn 0 -0.97440333 0.22480691
vn -0.00001672 -0.97439882 0.22482645
vn 0 -0.97439882 0.22482645
vn -0.00002831 -0.97439119 0.22485952
vn 0 1 0
vn -0.00001673 -0.97438972 -0.2248659
vn 0 -0.97438521 -0.22488545
vn 0 -0.97438972 -0.2248659
vn -0.00000558 -0.97439122 -0.22485938
vn 0 0.99469441 -0.10287387
vn -0.0000104 0.99469323 -0.10288523
vn -0.1024674 0.99039357 0.0928494
vn -0.10245453 0.9903938 0.09286111
vn -0.10289915 0.99469179 0
vn -0.10235868 0.98946723 -0.10235868
vn -0.1023338 0.98947238 -0.1023338
vn 0.00000945 0.99563313 0.09335236
vn 0 0.99563401 0.093343
vn 0.10245712 0.99039441 0.09285177
vn 0.10245464 0.99039488 0.09284953
vn 0.10289915 0.99469179 0
vn 0.10235883 0.98946865 -0.10234482
vn 0.10234482 0.98946865 -0.10235883
vn -0.01064414 0.10289332 -0.99463544
vn 0 0.11462411 -0.99340894
vn 0 0.10289915 -0.99469179
vn 0.01199813 0.11598196 -0.99317885
vn 0 0 -1
vn 0 -0.22488747 -0.97438474
vn 0.99463544 0.10289332 -0.01064414
vn 0.99340894 0.11462411 0
vn 0.99469179 0.10289915 0
vn 0.99335158 0.11461749 0.01074539
vn 1 0 0
vn -2e-8 -2e-7 1
vn 0 -2.2e-7 1
vn 0 -2e-7 1
vn 2e-8 -2.2e-7 1
vn 0 0 1
vn 0 -0.2247161 0.97442428
vn -0.99464551 0.10289436 0.00964635
vn -0.99340894 0.11462411 0
vn -0.99469179 0.10289915 0
vn -0.99317885 0.11598196 -0.01199813
vn -1 0 0
vn 0 -1 0
vn -0.22485951 0 -0.9743912
vn 0 0.18428854 -0.98287219
vn 0.2516098 0.2516098 -0.9345507
vn 0.9723873 0 -0.23337295
vn 0.98287219 0.18428854 0
vn 0.95061535 0.21953147 0.21940007
vn -0.21934966 0.22001499 0.95051519
vn 0 0.00069997 0.99999976
vn 0.22485946 0.00068204 0.97439097
vn 0 0.18495303 0.98274736
vn -0.95065415 0.21938173 -0.21938173
vn -0.97438506 0.00013469 0.22488607
vn -0.98287219 0.18428854 0
g hedgeB
usemtl 2
f 1/1/1 3/2/1 2/3/1
f 1/1/2 4/4/2 3/2/2
f 5/1/3 6/2/3 7/3/3
f 5/1/4 8/4/4 6/2/4
f 9/1/3 10/2/3 11/3/3
f 9/1/3 12/4/3 10/2/3
f 13/4/5 14/5/5 15/2/5
f 13/4/5 16/6/5 14/5/5
f 17/4/5 18/5/5 19/2/5
f 17/4/5 20/6/5 18/5/5
f 21/4/5 22/5/5 23/2/5
f 21/4/5 24/6/5 22/5/5
f 25/4/5 26/5/5 27/2/5
f 25/4/5 28/6/5 26/5/5
f 29/1/6 30/2/6 31/3/6
f 29/1/7 32/4/7 30/2/7
f 33/1/8 34/2/8 35/3/8
f 33/1/8 36/4/8 34/2/8
f 37/1/9 38/2/9 39/3/9
f 37/1/8 40/4/8 38/2/8
f 41/1/10 42/2/10 43/3/10
f 41/1/11 44/4/11 42/2/11
f 45/1/12 46/2/12 47/3/12
f 45/1/13 48/4/13 46/2/13
f 49/1/14 50/2/14 51/3/14
f 49/1/14 52/4/14 50/2/14
f 53/1/15 54/2/15 55/3/15
f 53/1/16 56/4/16 54/2/16
f 57/1/5 58/2/5 59/3/5
f 57/1/5 60/4/5 58/2/5
f 61/1/17 62/2/17 63/3/17
f 61/1/18 64/4/18 62/2/18
f 65/1/19 66/2/19 67/3/19
f 65/1/20 68/4/20 66/2/20
f 69/1/21 70/2/21 71/3/21
f 69/1/21 72/4/21 70/2/21
f 73/1/22 74/2/22 75/3/22
f 73/1/23 76/4/23 74/2/23
f 77/1/24 78/2/24 79/3/24
f 77/1/25 80/4/25 78/2/25
f 81/1/26 82/2/26 83/3/26
f 81/1/26 84/4/26 82/2/26
f 85/1/27 86/2/27 87/3/27
f 85/1/26 88/4/26 86/2/26
f 89/1/28 90/2/28 91/3/28
f 89/1/28 92/4/28 90/2/28
f 93/1/28 94/2/28 95/3/28
f 93/1/28 96/4/28 94/2/28
f 97/1/28 98/2/28 99/3/28
f 97/1/28 100/4/28 98/2/28
f 101/1/29 102/2/29 103/3/29
f 101/1/29 104/4/29 102/2/29
f 105/1/29 106/2/29 107/3/29
f 105/1/29 108/4/29 106/2/29
f 109/1/29 110/2/29 111/3/29
f 109/1/29 112/4/29 110/2/29
f 113/4/5 114/5/5 115/2/5
f 113/4/5 116/6/5 114/5/5
f 117/1/30 118/2/30 119/3/30
f 117/1/31 120/4/31 118/2/31
f 121/1/32 122/2/32 123/3/32
f 121/1/32 124/4/32 122/2/32
f 125/1/33 126/2/33 127/3/33
f 125/1/32 128/4/32 126/2/32
f 129/1/34 130/2/34 131/3/34
f 129/1/34 132/4/34 130/2/34
f 133/1/34 134/2/34 135/3/34
f 133/1/34 136/4/34 134/2/34
f 137/1/34 138/2/34 139/3/34
f 137/1/34 140/4/34 138/2/34
f 141/1/34 142/2/34 143/3/34
f 141/1/34 144/4/34 142/2/34
f 145/1/34 146/2/34 147/3/34
f 145/1/34 148/4/34 146/2/34
f 149/1/34 150/2/34 151/3/34
f 149/1/34 152/4/34 150/2/34
f 153/1/35 154/2/35 155/3/35
f 153/1/36 156/4/36 154/2/36
f 157/1/37 158/2/37 159/3/37
f 157/1/37 160/4/37 158/2/37
f 161/1/38 162/2/38 163/3/38
f 161/1/37 164/4/37 162/2/37
f 165/1/39 166/2/39 167/3/39
f 165/1/39 168/4/39 166/2/39
f 169/1/39 170/2/39 171/3/39
f 169/1/39 172/4/39 170/2/39
f 173/1/39 174/2/39 175/3/39
f 173/1/39 176/4/39 174/2/39
f 177/1/40 178/2/40 179/3/40
f 177/1/40 180/4/40 178/2/40
f 181/1/40 182/2/40 183/3/40
f 181/1/40 184/4/40 182/2/40
f 185/1/40 186/2/40 187/3/40
f 185/1/40 188/4/40 186/2/40
f 189/1/41 190/2/41 191/3/41
f 189/1/42 192/4/42 190/2/42
f 193/1/43 194/2/43 195/3/43
f 193/1/43 196/4/43 194/2/43
f 197/1/44 198/2/44 199/3/44
f 197/1/43 200/4/43 198/2/43
f 201/1/45 202/2/45 203/3/45
f 201/1/45 204/4/45 202/2/45
f 205/1/45 206/2/45 207/3/45
f 205/1/45 208/4/45 206/2/45
f 209/1/45 210/2/45 211/3/45
f 209/1/45 212/4/45 210/2/45
f 213/1/45 214/2/45 215/3/45
f 213/1/45 216/4/45 214/2/45
f 217/1/45 218/2/45 219/3/45
f 217/1/45 220/4/45 218/2/45
f 221/1/45 222/2/45 223/3/45
f 221/1/45 224/4/45 222/2/45
f 225/4/5 226/5/5 227/2/5
f 225/4/5 228/6/5 226/5/5
f 229/4/5 230/5/5 231/2/5
f 229/4/5 232/6/5 230/5/5
f 233/4/5 234/5/5 235/2/5
f 233/4/5 236/6/5 234/5/5
f 237/4/5 238/5/5 239/2/5
f 237/4/5 240/6/5 238/5/5
f 241/4/5 242/5/5 243/2/5
f 241/4/5 244/6/5 242/5/5
f 245/4/5 246/5/5 247/2/5
f 245/4/5 248/6/5 246/5/5
f 249/4/5 250/5/5 251/2/5
f 249/4/5 252/6/5 250/5/5
f 253/4/5 254/5/5 255/2/5
f 253/4/5 256/6/5 254/5/5
f 257/4/5 258/5/5 259/2/5
f 257/4/5 260/6/5 258/5/5
f 261/4/5 262/5/5 263/2/5
f 261/4/5 264/6/5 262/5/5
f 265/4/5 266/5/5 267/2/5
f 265/4/5 268/6/5 266/5/5
f 269/4/46 270/5/46 271/2/46
f 269/4/46 272/6/46 270/5/46
f 273/4/46 274/5/46 275/2/46
f 273/4/46 276/6/46 274/5/46
f 277/4/46 278/5/46 279/2/46
f 277/4/46 280/6/46 278/5/46
f 281/4/46 282/5/46 283/2/46
f 281/4/46 284/6/46 282/5/46
f 285/4/46 286/5/46 287/2/46
f 285/4/46 288/6/46 286/5/46
f 289/4/46 290/5/46 291/2/46
f 289/4/46 292/6/46 290/5/46
f 293/4/46 294/5/46 295/2/46
f 293/4/46 296/6/46 294/5/46
f 297/4/46 298/5/46 299/2/46
f 297/4/46 300/6/46 298/5/46
f 301/4/46 302/5/46 303/2/46
f 301/4/46 304/6/46 302/5/46
f 305/4/46 306/5/46 307/2/46
f 305/4/46 308/6/46 306/5/46
f 309/4/46 310/5/46 311/2/46
f 309/4/46 312/6/46 310/5/46
f 313/4/46 314/5/46 315/2/46
f 313/4/46 316/6/46 314/5/46
f 317/4/46 318/5/46 319/2/46
f 317/4/46 320/6/46 318/5/46
f 321/4/46 322/5/46 323/2/46
f 321/4/46 324/6/46 322/5/46
f 325/4/46 326/5/46 327/2/46
f 325/4/46 328/6/46 326/5/46
f 329/4/46 330/5/46 331/2/46
f 329/4/46 332/6/46 330/5/46
f 333/4/47 334/5/47 335/2/47
f 333/4/48 336/6/48 334/5/48
f 337/4/28 338/5/28 339/2/28
f 337/4/28 340/6/28 338/5/28
f 341/4/28 342/5/28 343/2/28
f 341/4/28 344/6/28 342/5/28
f 345/4/49 346/5/49 347/2/49
f 345/4/28 348/6/28 346/5/28
f 349/4/50 350/5/50 351/2/50
f 349/4/51 352/6/51 350/5/51
f 353/4/34 354/5/34 355/2/34
f 353/4/34 356/6/34 354/5/34
f 357/4/34 358/5/34 359/2/34
f 357/4/34 360/6/34 358/5/34
f 361/4/52 362/5/52 363/2/52
f 361/4/34 364/6/34 362/5/34
f 365/4/53 366/5/53 367/2/53
f 365/4/54 368/6/54 366/5/54
f 369/4/54 370/5/54 371/2/54
f 369/4/54 372/6/54 370/5/54
f 373/4/54 374/5/54 375/2/54
f 373/4/54 376/6/54 374/5/54
f 377/4/55 378/5/55 379/2/55
f 377/4/56 380/6/56 378/5/56
f 381/4/57 382/5/57 383/2/57
f 381/4/45 384/6/45 382/5/45
f 385/4/45 386/5/45 387/2/45
f 385/4/45 388/6/45 386/5/45
f 389/4/45 390/5/45 391/2/45
f 389/4/45 392/6/45 390/5/45
f 393/4/58 394/5/58 395/2/58
f 393/4/59 396/6/59 394/5/59
f 397/7/46 398/5/46 399/8/46
f 397/7/46 400/3/46 398/5/46
