mtllib material.mtl
o Default
v 22.0625 0 47.48822784423828
v 22.0625 0 43.25
v 26.57998275756836 0 43.25
v 26.57998275756836 0 47.48822784423828
v 17.5625 0 47.48822784423828
v 22.07998275756836 0 43.25
v 17.5625 0 43.25
v 22.07998275756836 0 47.48822784423828
v 17.5625 -4.2292680740356445 43.25
v 22.07998275756836 -4.2292680740356445 47.48822784423828
v 17.5625 -4.2292680740356445 47.48822784423828
v 22.07998275756836 -4.2292680740356445 43.25
v 22.0625 -4.2292680740356445 43.25
v 26.57998275756836 -4.2292680740356445 47.48822784423828
v 22.0625 -4.2292680740356445 47.48822784423828
v 26.57998275756836 -4.2292680740356445 43.25
v 26.57998275756836 -4.2292680740356445 43.25
v 22.0625 0 43.25
v 26.57998275756836 0 43.25
v 22.0625 -4.2292680740356445 43.25
v 22.07998275756836 -4.2292680740356445 43.25
v 17.5625 0 43.25
v 22.07998275756836 0 43.25
v 17.5625 -4.2292680740356445 43.25
v 17.5625 -4.2292680740356445 43.25
v 17.5625 0 47.48822784423828
v 17.5625 0 43.25
v 17.5625 -4.2292680740356445 47.48822784423828
v 26.57998275756836 -4.2292680740356445 47.48822784423828
v 26.57998275756836 0 43.25
v 26.57998275756836 0 47.48822784423828
v 26.57998275756836 -4.2292680740356445 43.25
v 22.0625 -4.2292680740356445 47.48822784423828
v 26.57998275756836 0 47.48822784423828
v 22.0625 0 47.48822784423828
v 26.57998275756836 -4.2292680740356445 47.48822784423828
v 17.5625 -4.2292680740356445 47.48822784423828
v 22.07998275756836 0 47.48822784423828
v 17.5625 0 47.48822784423828
v 22.07998275756836 -4.2292680740356445 47.48822784423828
vt 0.3333333432674408 0
vt 0.6666666865348816 0.5
vt 0.3333333432674408 0.5
vt 0.6666666865348816 0
vt 0 0
vt 0 0.5
vt 1 1
vt 0.6666666865348816 1
vt 1 0.5
vn 0 1 0
vn 0 -1 0
vn 0 0 -1
vn -1 0 0
vn 1 0 0
vn 0 0 1
g airVent
usemtl decorationSheet
f 1/1/1 3/2/1 2/3/1
f 1/1/1 4/4/1 3/2/1
f 5/5/1 6/3/1 7/6/1
f 5/5/1 8/1/1 6/3/1
f 9/2/2 10/7/2 11/8/2
f 9/2/2 12/9/2 10/7/2
f 13/2/2 14/7/2 15/8/2
f 13/2/2 16/9/2 14/7/2
f 17/2/3 18/7/3 19/8/3
f 17/2/3 20/9/3 18/7/3
f 21/2/3 22/7/3 23/8/3
f 21/2/3 24/9/3 22/7/3
f 25/2/4 26/7/4 27/8/4
f 25/2/4 28/9/4 26/7/4
f 29/2/5 30/7/5 31/8/5
f 29/2/5 32/9/5 30/7/5
f 33/2/6 34/7/6 35/8/6
f 33/2/6 36/9/6 34/7/6
f 37/2/6 38/7/6 39/8/6
f 37/2/6 40/9/6 38/7/6
